<?xml version="1.0" encoding="UTF-8" standalone="no"?>
<!-- Created with Inkscape (http://www.inkscape.org/) -->

<svg
   version="1.1"
   id="svg1"
   width="1093.3333"
   height="717.33331"
   viewBox="0 0 1093.3333 717.33331"
   sodipodi:docname="Karte-neutral-05.svg"
   inkscape:version="1.4.2 (ebf0e940, 2025-05-08)"
   xmlns:inkscape="http://www.inkscape.org/namespaces/inkscape"
   xmlns:sodipodi="http://sodipodi.sourceforge.net/DTD/sodipodi-0.dtd"
   xmlns:xlink="http://www.w3.org/1999/xlink"
   xmlns="http://www.w3.org/2000/svg"
   xmlns:svg="http://www.w3.org/2000/svg">
  <defs
     id="defs1" />
  <sodipodi:namedview
     id="namedview1"
     pagecolor="#ffffff"
     bordercolor="#000000"
     borderopacity="0.25"
     inkscape:showpageshadow="2"
     inkscape:pageopacity="0.0"
     inkscape:pagecheckerboard="0"
     inkscape:deskcolor="#d1d1d1"
     inkscape:zoom="0.43428129"
     inkscape:cx="750.66554"
     inkscape:cy="590.63102"
     inkscape:window-width="1728"
     inkscape:window-height="1080"
     inkscape:window-x="0"
     inkscape:window-y="37"
     inkscape:window-maximized="0"
     inkscape:current-layer="g1" />
  <g
     inkscape:groupmode="layer"
     inkscape:label="Image"
     id="g1">
    <path
       style="opacity:0.5;fill:#000000"
       d="m 109.61344,68.297606 -2.10795,6.745443 -4.2159,8.853393 7.16703,17.706788 -6.32385,7.16703 1.26477,12.22612 v 8.01021 l 12.64771,15.17725 -9.27499,16.8636 7.58862,12.22612 16.44202,-10.53976 14.33407,1.26477 12.6477,-7.58862 10.96135,2.52954 2.52954,-4.2159 23.18745,7.16703 10.11817,-17.28519 28.66813,-6.32386 18.97156,-53.120357 -9.27499,-6.323853 -4.63749,-9.696574 -14.75565,-4.637491 -0.42159,-7.167033 -7.16704,-1.686361 -19.39314,-10.961344 -6.32386,4.215902 -9.69657,-5.059082 -2.52954,5.059082 -6.74544,4.215901 1.68636,10.961344 -7.58863,11.382935 -10.53975,8.010213 -9.69657,-2.529541 -5.48068,-7.588623 -14.75565,-6.323852 z"
       id="Palatin"
       inkscape:highlight-color="#354bf3">
      <title
         id="title1764643">Palatin</title>
    </path>
    <path
       style="opacity:0.5;fill:#000000"
       d="m 252.9541,82.210081 16.44201,-8.431803 -2.52954,-2.951131 1.26477,-12.647705 24.45223,-1.26477 9.69658,-6.323853 7.16703,1.264771 6.32385,5.902262 14.33407,0.42159 8.01021,12.647705 -5.48067,16.020426 -13.91248,9.274984 1.68636,5.902263 10.53976,1.68636 5.05908,6.74544 -2.95113,12.64771 -13.0693,8.01021 -16.44201,2.52954 -5.90227,8.01021 2.52954,10.11817 -10.11816,4.63749 1.68636,7.58862 -13.49088,-0.42159 -18.54997,-11.38293 -6.32385,0.84318 -6.74545,-2.95113 -6.74544,-12.64771 h -5.90226 z"
       id="Laterano"
       inkscape:highlight-color="#35edf3">
      <title
         id="title1764644">Laterano</title>
    </path>
    <path
       style="opacity:0.5;fill:#000000"
       d="m 198.56897,158.93949 5.90226,11.38294 11.80452,4.63749 6.32385,12.22611 6.74545,7.58862 9.69657,-2.95113 8.85339,10.53976 -10.96134,8.01021 -2.10795,12.22611 -14.33407,1.68637 -0.42159,8.85339 -7.16703,9.69657 h -8.85339 l -7.16703,-6.32385 -20.65792,3.79431 -10.11817,-8.85339 -21.0795,2.52954 -2.10796,-4.63749 -10.11816,1.26477 v 6.74544 l -9.69657,5.48067 -8.8534,-11.80452 10.96135,-6.32385 -1.26477,-5.48068 -9.69658,-6.74544 -0.84318,-6.74544 5.90227,-2.10795 -2.10796,-11.38294 1.68637,-5.48067 -0.84318,-13.06929 16.8636,-10.96135 12.22612,0.84318 12.6477,-6.74544 9.69657,2.10795 5.05909,-3.79431 z"
       id="Forum Trastevevee"
       inkscape:highlight-color="#35f3bd">
      <title
         id="title1764645">Forum Trastevevee</title>
    </path>
    <path
       style="opacity:0.5;fill:#000000"
       d="m 93.593016,244.52229 15.177244,2.10795 5.90226,-14.75565 6.74545,10.96134 10.11816,-4.63749 1.26477,-8.4318 h 8.85339 l 3.79432,5.05908 19.81473,-3.37272 9.27499,7.58862 22.34428,-2.52954 6.74544,6.74544 8.01021,0.42159 6.32385,4.2159 3.37272,7.58863 12.22612,15.17724 -1.26477,10.96135 -6.32385,2.95113 0.84318,13.49088 -12.64771,8.8534 4.63749,7.16703 0.42159,9.69657 -3.79431,5.48068 -21.92269,-13.0693 -15.17724,6.74544 h -10.96135 l -3.79431,6.74545 h -6.74544 l -5.90226,6.32385 -24.45223,-2.95113 2.95113,-5.90227 -2.52954,-7.16703 -8.01021,-4.63749 -3.37273,-12.22611 -27.403356,-13.0693 4.637491,-7.58862 -15.598836,-9.69658 1.264771,-8.85339 13.490885,-9.27498 z"
       id="Campania a Lappe"
       inkscape:highlight-color="#4335f3">
      <title
         id="title1764646">Campania a Lappe</title>
    </path>
    <path
       style="opacity:0.5;fill:#000000"
       d="m 220.49165,316.19262 23.18746,-1.26477 5.90227,14.75566 2.52954,3.37272 11.80452,1.26477 3.37272,-4.2159 10.96135,9.27498 0.42159,5.48067 4.63749,3.37272 2.10795,5.05908 21.07951,8.43181 v 14.75565 l -12.64771,-1.26477 -5.48067,5.90227 -21.07951,-4.21591 -12.6477,-3.37272 -10.11817,4.2159 -17.28519,16.44202 -5.48068,-2.95113 -1.68636,9.27498 4.21591,9.27499 -8.43181,5.48067 -6.74544,-8.01021 -10.96134,5.90226 -18.54997,2.52954 -8.01021,-5.05908 -5.48068,1.68636 -5.48067,8.4318 -10.96134,-3.37272 -14.75566,13.06929 10.11817,-37.94311 -7.58863,-5.48067 -9.69657,1.26477 -0.84318,-8.8534 -2.95113,-8.01021 -7.58863,-5.05908 0.84318,-16.44202 10.96135,-18.12837 22.76587,4.2159 5.48067,-5.90226 8.01021,-0.42159 4.2159,-8.01022 10.96135,2.10795 13.06929,-8.01021 19.39315,13.49089 8.85339,-5.05909 z"
       id="Eichenwald"
       inkscape:highlight-color="#35f369">
      <title
         id="title1764647">Eichenwald</title>
    </path>
    <path
       style="opacity:0.5;fill:#000000"
       d="m 134.10279,424.50471 15.7224,-8.32363 9.24847,5.54908 4.62423,-11.09816 8.32362,0.92485 8.32363,5.54908 16.64724,-3.69939 12.02301,-5.54908 5.54908,10.17332 10.17332,-8.32362 12.023,8.32362 3.69939,-1.8497 13.8727,14.79755 8.32363,0.92485 4.62423,18.49694 -6.47393,11.09816 -9.24847,0.92485 -6.47392,-2.77454 -33.29449,4.62423 -18.49694,0.92485 -24.97086,2.77454 -18.49694,-2.77454 -5.54908,-10.17332 -12.94786,-7.39877 5.54908,-11.09817 z"
       id="Ponralma"
       inkscape:highlight-color="#35f351">
      <title
         id="title1">Ponralma</title>
    </path>
    <path
       style="opacity:0.5;fill:#000000"
       d="m 221.0384,393.98476 28.67025,-17.57209 37.91872,5.54908 18.49694,-6.47393 7.39877,6.47393 12.94786,-2.77454 11.09816,17.57209 6.47393,2.77454 6.47393,-0.92485 18.49693,12.02301 h 11.09817 l 15.72239,13.87271 0.92485,12.023 -8.32362,0.92485 -16.64725,-9.24847 -11.09816,9.24847 -9.24847,0.92485 -12.94785,8.32362 -15.7224,-12.94786 -7.39877,5.54908 -24.97087,-3.69938 -6.47393,9.24847 -8.32362,5.54908 -12.94785,0.92484 0.92484,-20.34663 -7.39877,-0.92484 -15.7224,-15.7224 -16.64724,-6.47393 z"
       id="Neapel"
       inkscape:highlight-color="#79f335">
      <title
         id="title1764648">Neapel</title>
    </path>
    <path
       style="opacity:0.5;fill:#000000"
       d="m 86.935604,452.25011 44.392646,11.09816 17.57209,-0.92484 22.19633,6.47392 34.21933,-4.62423 -19.42178,18.49694 -27.74541,9.24847 -17.57209,4.62423 -9.24847,19.42178 h -7.39877 l -8.32362,-9.24846 -9.24847,4.62423 -9.248471,-10.17332 -10.173315,-12.02301 -13.872703,-3.69938 -0.924847,-17.57209 16.647244,-7.39878 z"
       id="Trentakuste"
       inkscape:highlight-color="#35f399">
      <title
         id="title1764649">Trentakuste</title>
    </path>
    <path
       style="opacity:0.5;fill:#000000"
       d="m 267.28074,456.87435 24.97087,-21.27148 21.27147,6.47393 9.24847,-9.24847 13.8727,14.79755 13.87271,-10.17332 6.47392,2.77454 12.94786,-11.09816 20.34663,8.32362 -6.47393,18.49694 13.87271,5.54908 1.84969,7.39877 7.39878,7.39878 -2.77455,5.54908 8.32363,5.54908 v 8.32362 l -11.09817,-2.77454 -11.09816,11.09816 -12.94785,-9.24846 -12.02301,-8.32363 -11.09817,5.54909 -18.49693,-6.47393 -4.62424,6.47393 -9.24847,2.77454 -9.24846,8.32362 -10.17332,-6.47393 -9.24847,0.92485 -9.24847,-12.02301 0.92485,-7.39878 -9.24847,-5.54908 z"
       id="Dünensee"
       inkscape:highlight-color="#187f08">
      <title
         id="title1764650">Dünensee</title>
    </path>
    <path
       style="opacity:0.5;fill:#000000"
       d="m 156.29912,491.09368 26.82056,-6.47393 21.27147,-22.19632 38.84357,-2.77454 14.79755,5.54908 5.54908,-4.62424 12.94786,12.94786 7.39877,8.32362 0.92485,12.02301 10.17332,2.77454 -9.24847,20.34663 4.62423,13.8727 -12.02301,13.87271 -5.54908,-4.62424 -12.94785,9.24847 -12.02301,-9.24847 -12.02301,-3.69939 -10.17332,5.54909 -17.57209,-12.94786 -2.77454,9.24847 -20.34663,10.17331 -18.49694,-2.77454 0.92485,-15.72239 -9.24847,-8.32363 12.94786,-20.34663 z"
       id="Reniakuste"
       inkscape:highlight-color="#066a12">
      <title
         id="title1764651">Reniakuste</title>
    </path>
    <path
       style="opacity:0.5;fill:#000000"
       d="m 410.632,492.94337 14.79755,18.49694 v 12.94786 l -10.17331,17.57209 -11.09817,10.17331 h -11.09816 l -8.32362,18.49694 -11.09816,14.79755 -9.24847,-3.69939 -6.47393,5.54908 -10.17331,-8.32362 h -11.09817 l -8.32362,-8.32362 -10.17331,3.69939 -23.12117,-1.8497 -3.69939,-12.02301 -6.47393,-1.84969 -8.32362,-15.7224 13.8727,-12.02301 -4.62423,-15.72239 9.24847,-18.49694 17.57209,4.62423 13.8727,-8.32362 h 6.47393 l 2.77454,-7.39877 19.42178,4.62423 9.24847,-4.62423 24.97086,16.64724 z"
       id="Jonische-Ufer"
       inkscape:highlight-color="#033307">
      <title
         id="title1764652">Jonische-Ufer</title>
    </path>
    <path
       style="opacity:0.5;fill:#000000"
       d="m 165.54759,541.96026 19.42178,7.39877 20.34663,-11.09816 4.62424,-8.32362 15.72239,13.8727 13.8727,-8.32362 15.7224,13.8727 17.57209,-8.32362 10.17332,19.42178 8.32362,1.8497 0.92485,8.32362 -22.19633,15.72239 -16.64724,1.8497 7.39877,6.47393 -13.8727,24.04601 -19.42178,-1.84969 -6.47393,4.62423 -10.17332,-8.32362 v -6.47392 l -9.24847,-1.8497 -9.24846,-9.24847 -12.94786,0.92485 1.84969,-9.24847 -14.79755,-8.32362 -6.47392,-14.79755 12.023,-11.09816 z"
       id="Strumiciache Ufer"
       inkscape:highlight-color="#97fa2e">
      <title
         id="title1764653">Strumiciache Ufer</title>
    </path>
    <path
       style="opacity:0.5;fill:#000000"
       d="m 408.78231,114.68101 27.7454,-6.47393 17.57209,-2.77454 19.42179,3.69939 12.02301,-14.797551 19.42178,-0.924847 3.69939,-6.473928 12.02301,-12.947856 17.57209,12.023009 -0.92485,10.173316 13.8727,0.924846 12.02301,6.473931 15.7224,0.92484 2.77454,9.24847 -12.94786,15.7224 3.69939,27.7454 -26.82056,23.12118 -16.64724,-5.54908 -21.27148,8.32362 -17.57209,3.69938 v 17.57209 l -16.64724,-3.69938 -6.47393,-5.54908 -10.17331,-0.92485 -5.54909,-7.39878 -13.8727,4.62424 -21.27148,-6.47393 -9.24846,9.24847 -3.69939,-5.54908 5.54908,-10.17332 -5.54908,-12.94785 11.09816,-3.69939 -7.39877,-7.39878 -10.17332,-11.09816 6.47393,-5.54908 z"
       id="Toscana & Unburia"
       inkscape:highlight-color="#f34135">
      <title
         id="title1764654">Toscana &amp; Unburia</title>
    </path>
    <path
       style="opacity:0.5;fill:#000000"
       d="m 366.23935,229.36202 -0.92484,-12.94786 -7.39878,-12.94785 10.17332,-2.77454 3.69938,-12.94786 22.19633,-1.84969 12.02301,7.39877 11.09816,-7.39877 17.57209,9.24847 14.79755,-7.39878 9.24847,6.47393 12.02301,6.47393 -4.62424,7.39877 5.54908,11.09816 -2.77454,18.49694 -16.64724,9.24847 -8.32362,22.19632 -21.27148,-4.62423 -12.02301,14.79755 -3.69938,-12.02301 -11.09817,-16.64724 z"
       id="Florenzz"
       inkscape:highlight-color="#f34937">
      <title
         id="title1764655">Florenzz</title>
    </path>
    <path
       style="opacity:0.5;fill:#000000"
       d="m 331.09517,193.29299 10.17332,23.12117 22.19632,12.94786 31.4448,20.34663 14.79755,30.51995 -36.99388,14.79755 -4.62423,14.79755 -18.49694,2.77454 h -8.32362 l -2.77454,7.39877 -11.09816,-3.69939 -12.94786,8.32363 -4.62423,-10.17332 h -9.24847 l -2.77454,-8.32362 -5.54908,-13.8727 -9.24847,-7.39878 5.54908,-14.79755 -3.69939,-11.09816 6.47393,-3.69939 -5.54908,-17.57209 22.19632,-14.79755 v -18.49694 z"
       id="Forum Vatlkanstadt"
       inkscape:highlight-color="#f35139">
      <title
         id="title1764656">Forum Vatlkanstadt</title>
    </path>
    <path
       style="opacity:0.5;fill:#000000"
       d="m 471.67189,203.46631 17.57209,1.84969 9.24847,17.57209 17.57209,5.54908 2.77454,5.54908 5.54909,-5.54908 15.72239,12.02301 0.92485,11.09816 -3.69939,9.24847 7.39878,6.47393 -3.69939,10.17332 -23.12117,17.57209 -41.61811,0.92484 -4.62424,-5.54908 -12.023,-4.62423 -8.32363,-15.7224 -12.94785,-3.69939 14.79755,-19.42178 14.79755,-12.02301 5.54908,-17.57209 z"
       id="Varensia"
       inkscape:highlight-color="#892508">
      <title
         id="title1764657">Varensia</title>
    </path>
    <path
       style="opacity:0.5;fill:#000000"
       d="m 352.36665,313.52308 16.64724,-4.62423 2.77454,-13.8727 41.61811,-15.7224 8.32362,-14.79755 25.89572,4.62423 11.09816,17.57209 9.24847,2.77454 12.02301,8.32363 -10.17332,1.84969 -6.47393,24.04602 -36.99387,11.09816 -25.89571,12.94786 -2.77454,8.32362 -9.24847,-7.39878 -13.8727,-2.77454 -2.77455,-14.79755 h -14.79755 z"
       id="Porrugiert"
       inkscape:highlight-color="#f34d35">
      <title
         id="title1764658">Porrugiert</title>
    </path>
    <path
       style="opacity:0.5;fill:#000000"
       d="m 492.01853,187.74391 38.84356,-14.79755 15.7224,6.47393 26.82056,-21.27148 12.02301,13.8727 9.24847,0.92485 4.62423,5.54908 10.17332,1.8497 8.32362,10.17331 6.47393,-0.92485 12.94785,9.24847 3.69939,13.87271 -14.79755,4.62423 -5.54908,7.39878 -18.49694,13.8727 -28.67025,2.77454 -32.36964,7.39877 -1.8497,-12.94785 -14.79754,-10.17332 -11.09817,0.92485 -14.79755,-6.47393 -9.24847,-17.57209 z"
       id="Sandfelsen"
       inkscape:highlight-color="#ac1a0a">
      <title
         id="title1764659">Sandfelsen</title>
    </path>
    <path
       style="opacity:0.5;fill:#000000"
       d="m 473.52159,296.87584 -10.17332,26.82056 -38.84356,11.09816 28.67025,27.74541 25.89571,-7.39878 23.12117,23.12117 h 20.34663 l 25.89571,-9.24847 4.62424,-16.64724 h 8.32362 l 13.8727,-18.49694 19.42179,-4.62423 v -20.34663 l -6.47393,-9.24847 -22.19633,-12.94786 -11.09816,1.8497 -2.77454,-6.47393 -14.79755,-1.84969 -16.64724,11.09816 -20.34663,4.62423 z"
       id="ApeniniiTal"
       inkscape:highlight-color="#dc3b0d">
      <title
         id="title1764660">ApeniniiTal</title>
    </path>
    <path
       style="opacity:0.5;fill:#000000"
       d="m 541.03541,246.93411 60.11504,-8.32362 24.97087,-21.27148 13.8727,-4.62423 5.54908,12.02301 -5.54908,5.54908 -6.47393,0.92484 3.69939,18.49694 -5.54908,19.42178 -12.94786,12.02301 -11.09816,17.57209 -21.27148,1.8497 -21.27147,-15.7224 -12.94786,2.77454 1.84969,-5.54908 -16.64724,-3.69939 7.39878,-10.17331 -6.47393,-11.09817 z"
       id="Silber-Bucht"
       inkscape:highlight-color="#810f08">
      <title
         id="title1764661">Silber-Bucht</title>
    </path>
    <path
       style="opacity:0.5;fill:#000000"
       d="m 643.69341,365.31451 12.02301,-8.32363 0.92485,-11.09816 17.57209,-1.84969 20.34663,-22.19633 v -12.023 l -12.94786,-5.54909 6.47393,-12.94785 -18.49694,-12.94786 -12.94785,2.77454 -12.94786,-12.02301 -12.02301,-1.84969 -24.04602,30.51995 -21.27148,1.84969 10.17332,9.24847 v 17.57209 l 9.24847,0.92485 12.94785,24.97086 z"
       id="Palerno"
       inkscape:highlight-color="#8b1108">
      <title
         id="title1764663">Palerno</title>
    </path>
    <path
       style="opacity:0.5;fill:#000000"
       d="m 637.21948,228.43717 18.49694,3.69939 45.31749,-5.54908 8.32363,4.62423 9.24846,-2.77454 5.54909,-10.17331 8.32362,4.62423 4.62423,8.32362 v 22.19633 l -11.09816,14.79755 -12.02301,0.92484 -11.09816,7.39878 0.92484,9.24847 -7.39877,4.62423 h -14.79755 l -10.17332,-14.79755 -13.8727,6.47393 -13.8727,-13.8727 -13.8727,-1.8497 9.24846,-18.49693 z"
       id="Hairon"
       inkscape:highlight-color="#f6806f">
      <title
         id="title1764664">Hairon</title>
    </path>
    <path
       style="opacity:0.5;fill:#000000"
       d="m 638.14433,198.84207 22.19632,-24.04601 19.42179,-2.77455 0.92484,-9.24846 10.17332,-3.69939 3.69939,-13.8727 -4.62424,-4.62424 4.62424,-12.94785 8.32362,12.023 v 11.09817 l 12.02301,1.84969 12.94785,11.09816 -4.62423,15.7224 v 3.69939 l 6.47393,-4.62424 11.09816,4.62424 6.47393,15.72239 -11.09817,13.87271 -0.92484,12.02301 -12.02301,-6.47393 -8.32362,10.17331 h -9.24847 l -2.77454,-5.54908 -9.24847,3.69939 -22.19633,0.92485 -28.67025,2.77454 2.77454,-6.47393 z"
       id="Mattra"
       inkscape:highlight-color="#750e07">
      <title
         id="title1764665">Mattra</title>
    </path>
    <path
       style="opacity:0.5;fill:#000000"
       d="m 581.72867,106.35739 18.49694,-8.323624 10.17331,8.323624 12.02301,4.62423 12.02301,3.69939 17.57209,5.54908 9.24847,-3.69939 13.8727,5.54908 5.54908,12.94786 -5.54908,7.39878 3.69939,5.54908 1.84969,13.8727 -0.92484,9.24847 -19.42179,0.92484 -22.19632,22.19633 -12.02301,-6.47393 -8.32362,1.84969 -9.24847,-12.023 -15.7224,-5.54909 -10.17331,-1.84969 -11.09817,-12.02301 -1.84969,-30.51994 z"
       id="Horthital"
       inkscape:highlight-color="#f55550">
      <title
         id="title1764666">Horthital</title>
    </path>
    <path
       style="opacity:0.5;fill:#000000"
       d="m 610.39892,66.588973 35.14418,0.924847 4.62424,-5.549081 13.8727,8.323622 7.39877,-3.699388 8.32363,8.323622 -1.8497,19.421784 22.19633,13.872701 11.09816,22.19633 3.69939,21.27147 -9.24847,-0.92484 -2.77454,-12.02301 -8.32362,-12.02301 -6.47393,12.94785 4.62423,6.47393 -3.69939,12.94786 -9.24846,1.84969 -3.69939,-20.34663 5.54908,-4.62423 -7.39877,-17.57209 -12.94786,-2.77454 -8.32362,4.62423 -12.02301,-8.32362 -33.29449,-8.32362 -12.02301,-7.398777 8.32362,-5.549081 8.32363,-12.02301 z"
       id="Forouza"
       inkscape:highlight-color="#951609">
      <title
         id="title1764667">Forouza</title>
    </path>
    <path
       style="opacity:0.5;fill:#000000"
       d="m 660.34065,350.51696 13.87271,1.84969 7.39877,9.24847 20.34663,2.77454 9.24847,-3.69939 14.79755,0.92485 13.8727,-2.77454 11.09816,10.17331 13.87271,1.8497 2.77454,-7.39878 12.02301,-1.84969 v -6.47393 l 7.39877,-4.62423 2.77454,-9.24847 -5.54908,-11.09816 -9.24847,-6.47393 -24.97086,-2.77454 v -8.32362 l -9.24847,-10.17332 -21.27148,15.7224 -26.82056,-3.69939 1.8497,8.32362 -20.34663,21.27148 z"
       id="Apilion"
       inkscape:highlight-color="#35f339">
      <title
         id="title1764642">Apilion</title>
    </path>
    <path
       style="opacity:0.5;fill:#000000"
       d="m 737.10294,253.40804 12.02301,10.17331 22.19632,1.8497 6.47393,-9.24847 11.09817,7.39877 13.8727,1.8497 -1.8497,18.49693 0.92485,13.87271 -12.02301,8.32362 -12.02301,5.54908 -0.92484,12.94786 -27.74541,-4.62424 0.92485,-10.17331 -11.09817,-9.24847 -18.49693,18.49693 -26.82056,-4.62423 -0.92485,-8.32362 -12.02301,-3.69939 5.54908,-10.17331 12.94786,-2.77455"
       id="Mendria"
       inkscape:highlight-color="#4ff335">
      <title
         id="title1764668">Mendria</title>
    </path>
    <path
       style="opacity:0.5;fill:#000000"
       d="m 748.2011,198.84207 -12.02301,14.79755 -1.84969,12.02301 1.84969,10.17332 v 15.72239 l 11.09817,10.17332 23.12117,3.69939 6.47393,-10.17332 11.09816,4.62424 2.77454,-12.94786 12.94785,4.62423 28.67026,-14.79755 0.92484,3.69939 7.39878,-10.17331 -0.92485,-17.57209 -20.34663,-7.39878 -6.47393,5.54908 -17.57209,-9.24847 -13.8727,3.69939 -17.57209,-10.17331 z"
       id="Pergugia"
       inkscape:highlight-color="#5bf335">
      <title
         id="title1764669">Pergugia</title>
    </path>
    <path
       style="opacity:0.5;fill:#000000"
       d="m 713.98177,144.27611 5.54908,12.02301 10.17332,6.47393 -7.39878,20.34663 9.24847,-4.62424 10.17332,5.54908 4.62423,13.87271 7.39877,-1.8497 12.02301,-0.92484 14.79755,10.17331 15.7224,-5.54908 15.7224,10.17332 9.24846,-5.54909 -21.27147,-11.09816 -1.8497,-12.94785 10.17332,-7.39878 8.32362,-12.94785 -6.47393,-9.24847 -6.47393,3.69938 -9.24846,-7.39877 -21.27148,-10.17332 -7.39878,-12.94785 -18.49693,0.92485 -7.39878,12.023 -9.24847,6.47393 z"
       id="Farnovia"
       inkscape:highlight-color="#5bf335">
      <title
         id="title1764670">Farnovia</title>
    </path>
    <path
       style="opacity:0.5;fill:#000000"
       d="m 896.1766,174.79606 -4.62423,13.8727 1.84969,1.84969 -3.69939,8.32362 10.17332,3.69939 -1.8497,5.54908 -17.57209,10.17332 -16.64724,-7.39878 -1.84969,8.32362 -14.79755,13.87271 -7.39878,-1.8497 0.92485,-17.57209 -17.57209,-10.17331 -24.04602,-14.79755 -2.77454,-10.17332 14.79755,-6.47393 4.62423,-12.023 11.09817,0.92484 10.17331,-5.54908 8.32362,5.54908 8.32362,-2.77454 5.54909,6.47393 20.34663,-1.84969 z"
       id="Lisitone"
       inkscape:highlight-color="#67f335">
      <title
         id="title1764671">Lisitone</title>
    </path>
    <path
       style="opacity:0.5;fill:#000000"
       d="m 930.39593,213.63962 11.09817,-12.94785 11.09816,1.84969 14.79755,-16.64724 -25.89571,-17.57209 -17.57209,-14.79755 -6.47393,19.42178 -20.34663,2.77454 -5.54908,21.27148 11.09816,6.47393 -2.77454,8.32362 9.24847,7.39877 z"
       id="Marskem"
       inkscape:highlight-color="#5bf335">
      <title
         id="title1764672">Marskem</title>
    </path>
    <path
       style="opacity:0.5;fill:#000000"
       d="m 863.80696,220.11355 2.77454,11.09816 7.39878,-1.84969 0.92484,13.8727 6.47393,5.54908 14.79755,0.92485 12.02301,21.27148 10.17331,4.62423 10.17332,4.62424 -5.54908,16.64724 -24.04602,12.02301 -19.42178,-8.32362 -7.39878,-9.24847 -7.39877,0.92485 -25.89571,-8.32363 -37.91873,2.77454 2.77454,-24.97086 -21.27147,-5.54908 6.47393,-10.17332 13.8727,6.47393 40.69326,-21.27148"
       id="Appullen"
       inkscape:highlight-color="#91f335">
      <title
         id="title1764673">Appullen</title>
    </path>
    <path
       style="opacity:0.5;fill:#000000"
       d="m 775.02166,309.8237 2.77454,15.72239 8.32362,5.54908 3.69939,11.09817 -2.77454,11.09816 h -6.47393 l -1.84969,10.17331 5.54908,11.09817 10.17332,3.69938 2.77454,7.39878 12.94785,4.62423 5.54908,2.77454 10.17332,-1.84969 3.69939,10.17331 h 10.17331 l -0.92484,-8.32362 17.57209,-8.32362 -3.69939,-12.94786 -1.8497,-11.09816 -10.17331,-0.92484 -1.84969,-11.09817 -14.79755,-0.92484 v -16.64725 l -9.24847,-13.8727 -13.87271,0.92485 -7.39877,-12.02301 z"
       id="Tuku"
       inkscape:highlight-color="#35f375">
      <title
         id="title1764674">Tuku</title>
    </path>
    <path
       style="opacity:0.5;fill:#000000"
       d="m 900.80083,306.12431 5.54909,15.72239 -9.24847,14.79755 v 9.24847 l -10.17332,1.8497 -0.92485,11.09816 -15.72239,-4.62424 -6.47393,15.7224 -11.09816,1.84969 -1.8497,-12.023 -8.32362,-2.77455 -3.69938,-11.09816 h -13.87271 l -0.92484,-15.72239 -8.32363,-13.87271 -12.94785,0.92485 -14.79755,-14.79755 12.94785,-4.62423 v -12.94786 l 36.99388,-0.92485 35.14418,6.47393 8.32362,12.02301 z"
       id="Eraldis"
       inkscape:highlight-color="#3ad00c">
      <title
         id="title1764675">Eraldis</title>
    </path>
    <path
       style="opacity:0.5;fill:#000000"
       d="m 738.95263,80.461676 -3.69938,13.872703 h -5.54908 l -4.62424,6.473931 -9.24847,3.69938 v 9.24847 l 13.87271,0.92485 -3.69939,10.17332 10.17331,12.94785 10.17332,-12.02301 h 19.42178 l 10.17332,13.8727 20.34663,8.32363 10.17332,-10.17332 0.92484,-12.94785 10.17332,-13.87271 h 24.04602 l 0.92484,-12.023007 -7.39877,-12.947856 -14.79755,2.774541 -16.64725,-9.248469 3.69939,-9.248468 -12.94785,-8.323622 -20.34663,9.248469 -12.02301,-4.624235 z"
       id="Augusta Nemeters"
       inkscape:highlight-color="#78f66a">
      <title
         id="title1764676">Augusta Nemeters</title>
    </path>
    <path
       style="opacity:0.5;fill:#000000"
       d="m 712.13208,28.670252 26.82055,6.473928 5.54909,-8.323621 8.32362,1.849693 6.47393,-6.473928 12.94785,10.173316 9.24847,6.473928 0.92485,6.473928 5.54908,9.248468 -7.39878,13.872703 -18.49693,-2.77454 -24.04602,14.797549 -10.17332,-12.023009 -21.27147,0.924847 -15.7224,-19.421784 4.62423,-9.248468 14.79755,-1.849694 z"
       id="Aquitane"
       inkscape:highlight-color="#35f357">
      <title
         id="title1764677">Aquitane</title>
    </path>
    <path
       style="opacity:0.5;fill:#000000"
       d="m 801.84222,13.872703 14.79755,-4.6242345 17.57209,8.3236215 4.62424,-6.473928 13.8727,11.098162 16.64724,-6.473928 14.79755,17.572091 -2.77454,16.647243 -11.09816,0.924847 5.54908,8.323622 -8.32362,6.473928 -16.64725,-0.924847 -4.62423,7.398774 -6.47393,-0.924846 -12.94785,-0.924847 -7.39878,4.624234 -12.94785,-4.624234 -10.17332,-9.248469 -15.7224,4.624235 6.47393,-12.947856 -12.94785,-21.271478 4.62423,-6.473928 18.49694,2.774541 z"
       id="Maureniet"
       inkscape:highlight-color="#21f111">
      <title
         id="title1764678">Maureniet</title>
    </path>
    <path
       style="opacity:0.5;fill:#000000"
       d="m 884.15359,31.444793 12.02301,2.774541 6.47393,-4.624235 14.79755,12.947856 2.77454,12.947856 16.64724,11.098162 -1.84969,16.647244 10.17331,0.924847 6.47393,7.398774 -23.12117,14.797552 -8.32362,6.47393 -24.04602,-5.54909 -7.39877,8.32363 -11.09817,-6.47393 h -36.06902 l 1.84969,-11.098164 -7.39878,-12.023009 -16.64724,0.924847 -15.7224,-6.473928 3.69939,-11.098162 17.57209,3.699387 8.32362,-2.77454 12.94786,2.77454 5.54908,-7.398774 21.27148,-2.774541 -1.8497,-12.947856 11.09817,-2.774541 z"
       id="Tuskulum"
       inkscape:highlight-color="#35f351">
      <title
         id="title1764679">Tuskulum</title>
    </path>
    <path
       style="opacity:0.5;fill:#000000"
       d="m 949.81772,93.409532 12.02301,-2.77454 16.64724,16.647238 -5.54908,7.39878 10.17331,2.77454 1.8497,17.57209 -3.69939,12.02301 -13.8727,9.24847 -2.77454,11.09816 8.32362,2.77454 -0.92485,11.09816 -7.39877,7.39878 -41.61811,-36.99388 -2.77454,8.32363 -1.8497,10.17331 -21.27147,1.84969 -17.57209,-12.023 3.69938,-8.32363 h 14.79755 l -1.84969,-7.39877 -12.94786,-12.02301 1.8497,-16.64724 12.94785,-8.32363 22.19633,5.54909 z"
       id="Montegro"
       inkscape:highlight-color="#42ee0e">
      <title
         id="title1764680">Montegro</title>
    </path>
    <path
       style="opacity:0.5;fill:#000000"
       d="m 818.48946,111.90647 58.26536,-3.69939 7.39877,6.47393 v 16.64724 l 11.09816,12.94786 v 9.24847 l -14.79755,-2.77454 -1.84969,12.94785 -24.97087,-4.62423 -7.39877,3.69939 -8.32362,-7.39878 -13.8727,5.54908 -9.24847,-0.92484 -7.39878,-9.24847 -13.8727,-2.77454 12.02301,-11.09817 v -12.94785 z"
       id="Agualaine"
       inkscape:highlight-color="#3df335">
      <title
         id="title1764681">Agualaine</title>
    </path>
    <path
       style="opacity:0.5;fill:#000000"
       d="m 955.3668,218.26386 13.8727,-2.77454 v -9.24847 l 23.12117,-3.69939 10.17333,7.39878 8.3236,-3.69939 5.5491,6.47393 13.8727,10.17331 -9.2485,12.02301 1.8497,8.32362 h -6.4739 l -7.3988,10.17332 -8.3236,-0.92485 -4.62424,6.47393 -8.32362,-2.77454 -3.69939,-8.32362 -28.67025,-5.54908 z"
       id="Lauria"
       inkscape:highlight-color="#54f553">
      <title
         id="title1764682">Lauria</title>
    </path>
    <path
       style="opacity:0.5;fill:#000000"
       d="m 947.96802,267.28074 25.89572,7.39878 9.24846,13.8727 12.02301,0.92484 19.42179,16.64725 -4.6242,7.39877 -22.19636,5.54908 -2.77454,11.09817 -10.17332,10.17331 -10.17331,5.54908 -14.79755,-5.54908 -6.47393,6.47393 -15.7224,-20.34663 18.49694,-11.09816 -10.17332,-13.87271 9.24847,-10.17331 -7.39877,-15.7224 z"
       id="Tenubra"
       inkscape:highlight-color="#8bf335">
      <title
         id="title1764683">Tenubra</title>
    </path>
    <path
       style="opacity:0.5;fill:#000000"
       d="m 660.34065,348.66726 12.94786,4.62424 7.39877,8.32362 20.34663,1.84969 5.54909,-2.77454 17.57209,1.8497 13.8727,-3.69939 11.09816,9.24847 14.79755,1.84969 -1.84969,15.7224 H 750.0508 l -6.47393,24.04602 5.54908,12.023 -12.02301,-5.54908 -10.17331,0.92485 -23.12118,-9.24847 -33.29448,7.39878 -8.32362,-8.32362 -23.12118,1.84969 -3.69938,-26.82056 10.17331,-17.57209 z"
       id="Felsdüne"
       inkscape:highlight-color="#35edf3">
      <title
         id="title1764684">Felsdüne</title>
    </path>
    <path
       style="opacity:0.5;fill:#000000"
       d="m 541.96026,389.36052 13.8727,10.17332 16.64724,6.47393 2.77454,11.09816 9.24847,3.69939 8.32362,12.94785 -9.24847,1.8497 -4.62423,13.8727 1.84969,14.79755 -15.72239,15.7224 4.62423,11.09816 -8.32362,13.8727 -5.54908,3.69939 -14.79755,-6.47393 -6.47393,4.62424 -12.02301,1.84969 -9.24847,4.62423 -7.39877,-7.39877 -36.06903,4.62423 -12.94785,-21.27148 h -11.09817 l -4.62423,-12.023 -9.24847,-3.69939 -3.69939,-7.39878 7.39878,-4.62423 -5.54908,-12.94786 -3.69939,-6.47392 2.77454,-8.32363 h 12.02301 l 11.09816,-14.79755 14.79755,0.92485 6.47393,-4.62423 h 6.47393 l 7.39877,-7.39878 -0.92485,-7.39877 17.57209,-3.69939 13.87271,2.77454 9.24847,-7.39877 z"
       id="Sizi Küste"
       inkscape:highlight-color="#35e1f3">
      <title
         id="title1764685">Sizi Küste</title>
    </path>
    <path
       style="opacity:0.5;fill:#000000"
       d="m 632.59525,384.73629 6.47392,25.89571 20.34664,-2.77454 8.32362,7.39878 11.09816,-0.92485 24.97086,-6.47393 20.34664,11.09816 10.17331,-2.77454 12.02301,4.62424 2.77454,12.94785 -22.19632,9.24847 2.77454,8.32362 -2.77454,16.64725 -6.47393,2.77454 -14.79755,-7.39878 -5.54908,12.94786 -9.24847,-0.92485 -4.62424,7.39878 h -8.32362 l -1.84969,15.72239 2.77454,20.34663 -6.47393,3.69939 -7.39877,-18.49694 -3.69939,-21.27147 -8.32362,1.84969 -4.62424,-5.54908 -12.02301,-2.77454 -8.32362,8.32362 -5.54908,-6.47393 -7.39877,-1.84969 -4.62424,-7.39878 -12.94785,0.92485 -2.77454,-7.39877 h -14.79755 l 2.77454,-27.74541 h 11.09816 l -5.54908,-12.94786 9.24847,-17.57209 13.8727,-7.39877 z"
       id="Sandmeer"
       inkscape:highlight-color="#35f3f3">
      <title
         id="title1764686">Sandmeer</title>
    </path>
    <path
       style="opacity:0.5;fill:#000000"
       d="m 780.57074,363.46481 2.77454,12.94786 11.09817,2.77454 4.62423,9.24847 15.7224,4.62423 h 10.17331 l 4.62424,8.32362 -0.92485,7.39878 8.32362,6.47393 1.8497,8.32362 9.24846,8.32362 -3.69938,15.7224 -8.32363,15.72239 -14.79755,0.92485 -9.24846,5.54908 -11.09817,-1.84969 -7.39877,12.94785 h -19.42178 l -17.57209,-18.49693 -30.51995,4.62423 2.77454,-18.49694 -0.92485,-7.39877 21.27148,-12.02301 v -10.17332 l -5.54908,-9.24846 7.39877,-25.89572 10.17332,0.92485 4.62423,-22.19632 z"
       id="Hari"
       inkscape:highlight-color="#35e1f3">
      <title
         id="title1764687">Hari</title>
    </path>
    <path
       style="opacity:0.5;fill:#000000"
       d="m 581.72867,465.19797 11.09816,-1.8497 6.47393,8.32362 9.24847,-2.77454 5.54908,7.39878 13.8727,7.39877 8.32362,-7.39877 13.87271,2.77454 10.17331,4.62423 10.17332,38.84357 -6.47393,12.94786 4.62423,5.54908 -8.32362,14.79755 -11.09816,-6.47393 h -10.17332 l -8.32362,-11.09816 -9.24847,3.69939 -16.64724,-3.69939 -6.47393,8.32362 -9.24847,-6.47393 -12.94785,1.8497 v -13.87271 l -11.09816,-6.47393 6.47392,-8.32362 -11.09816,-11.09816 10.17332,-11.09816 -7.39878,-13.8727 z"
       id="Palemo"
       inkscape:highlight-color="#35f3e7">
      <title
         id="title1764688">Palemo</title>
    </path>
    <path
       style="opacity:0.5;fill:#000000"
       d="m 470.74705,511.44031 34.21933,-4.62423 8.32362,8.32362 26.82056,-12.02301 19.42179,4.62423 12.023,7.39878 -7.39877,6.47392 10.17332,6.47393 2.77454,11.09816 -6.47393,11.09817 6.47393,4.62423 -2.77454,6.47393 -10.17332,1.84969 1.84969,16.64725 -11.09816,-3.69939 -11.09816,2.77454 -1.84969,9.24847 -20.34664,17.57209 -7.39877,-5.54908 -16.64724,-2.77454 v -9.24847 l -26.82056,-25.89571 -9.24847,-3.69939 -1.84969,-18.49694 8.32362,-3.69939 v -12.94785 z"
       id="Felsdüne2"
       inkscape:highlight-color="#55e6f5">
      <title
         id="title1764689">Felsdüne2</title>
    </path>
    <path
       style="opacity:0.5;fill:#000000"
       d="m 437.45256,589.12744 21.27148,12.94786 11.09816,0.92485 7.39878,13.8727 -0.92485,9.24847 8.32362,10.17331 9.24847,10.17332 -8.32362,8.32362 -10.17332,4.62424 -1.84969,11.09816 v 9.24847 l -15.7224,1.84969 -5.54908,-4.62423 h -7.39877 l -8.32363,-7.39878 -13.8727,1.84969 -10.17331,-6.47392 -6.47393,-13.87271 -14.79755,-2.77454 -8.32362,3.69939 -5.54908,9.24847 -11.09817,9.24847 -5.54908,-4.62424 -14.79755,0.92485 -6.47393,-7.39877 6.47393,-7.39878 6.47393,-12.02301 17.57209,-2.77454 11.09816,-12.94785 8.32362,-15.7224 25.89572,-0.92485 1.84969,-6.47393 11.09816,-2.77454 z"
       id="Ponralma Ufer"
       inkscape:highlight-color="#0db7df">
      <title
         id="title1764690">Ponralma Ufer</title>
    </path>
    <path
       style="opacity:0.5;fill:#000000"
       d="m 576.17959,543.80995 12.94785,-3.69939 12.02301,3.69939 3.69939,-6.47393 17.57209,5.54908 5.54908,-4.62423 12.94786,11.09816 17.57209,5.54908 0.92485,9.24847 8.32362,6.47393 0.92484,9.24847 -6.47392,5.54908 -6.47393,-4.62424 -7.39878,7.39878 3.69939,12.02301 2.77454,10.17331 -6.47393,8.32362 h -10.17331 l -10.17332,-3.69938 -6.47393,-12.02301 -5.54908,-4.62424 -7.39877,3.69939 -7.39878,6.47393 -9.24846,-0.92485 -6.47393,-8.32362 -11.09816,0.92485 -0.92485,-13.87271 -11.09816,-8.32362 2.77454,-14.79755 9.24847,-0.92484 2.77454,-7.39878 z"
       id="Molassno"
       inkscape:highlight-color="#35f3cf">
      <title
         id="title1764691">Molassno</title>
    </path>
    <path
       style="opacity:0.5;fill:#000000"
       d="m 707.50784,463.34827 14.79755,7.39878 35.14418,-10.17332 17.57209,21.27148 h 22.19633 v 9.24847 l -8.32362,3.69939 1.84969,10.17331 2.77454,7.39878 -12.02301,12.02301 -11.09816,1.84969 -12.94786,-0.92485 1.8497,14.79755 -12.94786,-0.92485 -4.62423,-7.39877 -4.62424,5.54908 -17.57209,-2.77454 h -11.09816 l -16.64724,0.92485 -12.02301,0.92484 -11.09817,4.62424 -5.54908,-7.39878 9.24847,-13.8727 8.32362,-1.84969 -2.77454,-36.06903 15.7224,-7.39877 6.47393,4.62423 z"
       id="Lucerra"
       inkscape:highlight-color="#35f3d5">
      <title
         id="title1764692">Lucerra</title>
    </path>
    <path
       style="opacity:0.5;fill:#000000"
       d="m 666.81458,579.87898 -0.92485,-12.94786 -7.39877,-5.54908 -1.84969,-7.39878 13.8727,-14.79755 65.66412,-1.84969 6.47393,-5.54908 10.17332,8.32362 -10.17332,7.39878 12.94786,12.94785 -6.47393,8.32362 -6.47393,2.77454 -0.92484,6.47393 -14.79755,-6.47393 -17.57209,2.77455 -21.27148,1.84969 -7.39878,7.39877 z"
       id="Szulionen"
       inkscape:highlight-color="#35f3d5">
      <title
         id="title1764693">Szulionen</title>
    </path>
    <path
       style="opacity:0.5;fill:#000000"
       d="m 639.99402,620.57224 2.77454,8.32362 12.94786,-6.47393 8.32362,3.69939 0.92485,11.09816 14.79755,1.84969 3.69938,11.09817 10.17332,1.84969 3.69939,12.94786 16.64724,-19.42179 -1.84969,-12.02301 16.64724,-6.47392 14.79755,2.77454 5.54908,-8.32363 17.57209,4.62424 2.77454,-12.94786 -6.47393,-22.19632 -8.32362,-12.94786 -6.47393,4.62424 -6.47392,-9.24847 -11.09817,-3.69939 -45.31749,5.54908 -11.09816,7.39878 -6.47393,-2.77454 -6.47393,5.54908 -5.54908,-6.47393 -10.17332,7.39877 8.32362,22.19633 z"
       id="Trevoia"
       inkscape:highlight-color="#35f3e1">
      <title
         id="title1764694">Trevoia</title>
    </path>
    <path
       style="opacity:0.5;fill:#000000"
       d="m 799.06768,646.46795 10.17332,1.84969 6.47392,9.24847 -5.54908,5.54908 0.92485,12.94786 -12.94786,-2.77454 -1.84969,6.47393 -12.94786,-0.92485 -2.77454,8.32362 h -11.09816 l -5.54908,-9.24847 -19.42178,-2.77454 -7.39878,6.47393 -11.09816,-10.17332 h -12.02301 l -7.39877,-7.39877 h -12.02301 l 18.49693,-16.64724 0.92485,-14.79755 15.7224,-4.62424 14.79755,0.92485 5.54908,-8.32362 16.64724,2.77454 12.94786,9.24847 8.32362,-2.77454 z"
       id="Patatra"
       inkscape:highlight-color="#35c9f3">
      <title
         id="title1764695">Patatra</title>
    </path>
    <path
       style="opacity:0.5;fill:#000000"
       d="m 943.34379,362.53997 9.24847,8.32362 5.54908,-3.69939 18.49694,6.47393 2.77454,13.8727 4.62423,7.39878 -1.84969,8.32362 12.94785,15.72239 h 11.09819 l 1.8497,4.62424 -23.1212,6.47393 -17.57209,-7.39878 -5.54908,-6.47393 -10.17332,3.69939 -5.54908,-1.84969 -3.69939,5.54908 -30.51994,17.57209 -10.17332,-4.62424 -4.62423,11.09817 -15.7224,4.62423 -6.47393,-15.7224 -8.32362,0.92485 -5.54908,-9.24847 6.47393,-3.69938 0.92484,-29.5951 17.57209,-4.62424 6.47393,-1.84969 3.69939,-9.24847 19.42178,-4.62423 5.54908,-8.32363 15.7224,-3.69938 z"
       id="Alabre Kuste"
       inkscape:highlight-color="#c735f3">
      <title
         id="title1764696">Alabre Kuste</title>
    </path>
    <path
       style="opacity:0.5;fill:#000000"
       d="m 888.77783,464.27312 21.27147,-5.54908 6.47393,6.47393 12.02301,3.69938 24.04602,-1.84969 16.64724,3.69939 12.94786,12.02301 0.92484,10.17331 -6.47392,6.47393 12.02301,4.62423 1.84969,6.47393 10.17332,9.24847 1.8497,12.94786 2.7745,6.47392 -0.9248,8.32363 -6.47395,8.32362 -11.09816,-8.32362 -9.24847,-0.92485 -0.92484,-6.47393 -14.79755,-4.62423 -3.69939,5.54908 -8.32362,-5.54908 -11.09816,8.32362 -5.54909,-3.69939 -5.54908,-6.47393 h -14.79755 l -12.94785,8.32363 -6.47393,-1.8497 v -5.54908 l -5.54908,-4.62423 -2.77454,-14.79755 1.84969,-9.24847 7.39878,-5.54908 -1.8497,-14.79755 -8.32362,-7.39878 z"
       id="Sizillebt Ergansekur"
       inkscape:highlight-color="#b535f3">
      <title
         id="title1764697">Sizillebt Ergansekur</title>
    </path>
    <path
       style="opacity:0.5;fill:#000000"
       d="m 1007.1582,423.57986 3.6994,10.17331 6.4739,3.69939 2.7746,9.24847 -6.4739,5.54908 -0.9249,10.17332 -14.79755,5.54908 -2.77454,12.94785 -11.09816,-0.92484 -12.94786,-12.02301 -19.42178,-2.77454 -11.09816,2.77454 -24.04602,-0.92485 -5.54908,-9.24847 -23.12117,6.47393 -7.39878,-12.94786 16.64725,-4.62423 6.47392,-10.17332 11.09817,3.69939 32.36964,-21.27148 13.8727,-0.92484 9.24847,8.32362 14.79755,4.62423 z"
       id="Kraildune"
       inkscape:highlight-color="#b535f3">
      <title
         id="title1764698">Kraildune</title>
    </path>
    <path
       style="opacity:0.5;fill:#000000"
       d="m 835.13671,483.6949 19.42178,0.92485 15.7224,-5.54908 15.72239,1.84969 8.32363,5.54908 1.84969,12.94786 -10.17332,6.47393 2.77455,24.04602 6.47392,9.24846 -3.69938,3.69939 5.54908,12.02301 -5.54908,13.8727 -8.32363,-7.39877 -6.47392,8.32362 -11.09817,-1.84969 -6.47392,-4.62424 -17.57209,-3.69938 h -35.14418 l -11.09817,6.47392 -10.17331,-20.34663 11.09816,-10.17331 3.69939,-11.09816 18.49693,-11.09817 1.8497,-11.09816 9.24847,-8.32362 z"
       id="Mal Golf Tarent"
       inkscape:highlight-color="#a335f3">
      <title
         id="title1764699">Mal Golf Tarent</title>
    </path>
    <path
       style="opacity:0.5;fill:#000000"
       d="m 871.20573,621.49708 9.24847,-11.09816 -2.77454,-18.49693 -4.62423,-8.32363 3.69939,-8.32362 -7.39878,-7.39877 -16.64724,-7.39878 h -46.24234 l -12.94786,6.47393 3.69939,8.32362 -3.69939,12.02301 15.7224,11.09816 -1.8497,7.39878 -9.24847,1.84969 30.51995,15.7224 12.02301,-7.39878 z"
       id="Messno Erkansi"
       inkscape:highlight-color="#d335f3">
      <title
         id="title1764700">Messno Erkansi</title>
    </path>
    <path
       style="opacity:0.5;fill:#000000"
       d="M 896.1766,541.96026 Z"
       id="path1764700" />
    <path
       style="opacity:0.5;fill:#000000"
       d="m 890.62752,541.03541 19.42178,-7.39878 h 17.57209 l 7.39878,9.24847 14.79755,-7.39877 9.24847,3.69938 14.79755,0.92485 23.12117,13.8727 7.39879,11.09817 -4.62425,8.32362 -12.94786,-0.92485 -2.77454,9.24847 -11.09816,3.69939 -0.92485,10.17331 2.77454,5.54908 -6.47393,5.54909 -1.84969,9.24846 -0.92485,9.24847 -10.17331,5.54908 -9.24847,9.24847 -13.8727,-0.92485 -12.02301,-4.62423 -8.32362,5.54908 v 9.24847 l -11.09817,2.77454 -5.54908,12.94786 -12.02301,1.84969 -8.32362,-5.54908 -11.09816,2.77454 -6.47393,-8.32362 -3.69939,-8.32362 14.79755,-10.17332 v -16.64724 l 11.09817,-8.32362 -7.39878,-29.5951 4.62424,-6.47393 -5.54909,-6.47393 12.94786,-6.47393 7.39878,3.69939 4.62423,-12.94786 z"
       id="Monte Skarno"
       inkscape:highlight-color="#bb35f3">
      <title
         id="title1764702">Monte Skarno</title>
    </path>
  </g>
</svg>
