<svg xmlns="http://www.w3.org/2000/svg" version="1.1" viewBox="162.59 135.75 698.71 721.8">
<path d="M0 0 C0.88898232 -0.00029457 1.77796463 -0.00058914 2.6938858 -0.00089264 C31.07961977 -0.0024095 59.29794831 0.37327376 87.5625 3.25 C88.54986145 3.34945923 89.5372229 3.44891846 90.55450439 3.5513916 C172.31178442 11.8682987 279.69952396 26.58387137 345.5625 80.25 C346.89550568 82.91601135 346.97578993 85.29232756 347.28125 88.26171875 C347.40886719 89.49599609 347.53648437 90.73027344 347.66796875 92.00195312 C347.79816406 93.30068359 347.92835938 94.59941406 348.0625 95.9375 C348.19269531 97.18595703 348.32289063 98.43441406 348.45703125 99.72070312 C349.95117391 114.36782891 350.72985367 128.90102092 350.765625 143.6171875 C350.76845238 144.42278233 350.77127975 145.22837715 350.77419281 146.05838394 C350.78906921 150.33694008 350.79836667 154.61546361 350.80273438 158.89404297 C350.80708052 162.34923078 350.82083789 165.80416346 350.84375 169.25927734 C350.99219364 192.12287065 350.14076271 214.51976819 347.5625 237.25 C347.40176248 238.68544662 347.24110526 240.12090223 347.08052063 241.55636597 C336.35454655 336.82230273 301.93150822 432.19914356 223.5625 539.25 C222.54349609 540.51070312 222.54349609 540.51070312 221.50390625 541.796875 C207.40491534 559.18814365 192.36005372 575.51255658 176.5625 591.375 C175.78575928 592.15641357 175.00901855 592.93782715 174.20874023 593.74291992 C170.07140842 597.86868873 165.84806503 601.82502137 161.42041016 605.63720703 C158.62861689 608.06067435 155.94599539 610.59620142 153.25 613.125 C148.45254372 617.58826707 143.53087627 621.81974429 138.41796875 625.921875 C135.79078635 628.06387324 133.2291097 630.26082587 130.67456055 632.48779297 C123.65926111 638.59499813 116.39975809 644.29696658 108.9765625 649.8984375 C106.00655381 652.14141967 103.0668485 654.41685234 100.1484375 656.7265625 C90.95583684 663.99592789 81.56409779 670.80105205 71.84375 677.34765625 C68.3817785 679.68055982 64.98592434 682.08526697 61.625 684.5625 C56.65856723 688.21161676 51.57773935 691.65444868 46.42236328 695.03076172 C45.0806861 695.91030173 43.74072632 696.79246348 42.40185547 697.67626953 C32.91495959 703.93694868 23.36384804 710.09816835 13.6875 716.0625 C12.4490332 716.84512207 12.4490332 716.84512207 11.18554688 717.64355469 C3.59421704 722.26041218 3.59421704 722.26041218 -1.4375 721.25 C-4.09490287 719.97421145 -6.45486443 718.67953368 -8.9375 717.125 C-9.66598145 716.68196533 -10.39446289 716.23893066 -11.14501953 715.7824707 C-13.58649258 714.28818694 -16.01272537 712.7712162 -18.4375 711.25 C-19.30600586 710.70939941 -20.17451172 710.16879883 -21.06933594 709.61181641 C-34.0916498 701.49226968 -46.85139569 693.02852034 -59.4375 684.25 C-60.16807617 683.74227051 -60.89865234 683.23454102 -61.65136719 682.71142578 C-72.08755504 675.44994774 -82.31598323 667.94283415 -92.4375 660.25 C-93.51378662 659.43499023 -93.51378662 659.43499023 -94.61181641 658.60351562 C-107.2979944 648.99471927 -119.61813102 639.01797818 -131.73291016 628.70019531 C-133.45869329 627.23196961 -135.18824272 625.76826467 -136.91796875 624.3046875 C-144.32992201 618.01503918 -151.56126365 611.56639635 -158.65234375 604.91748047 C-160.58284221 603.11423861 -162.52546811 601.3246103 -164.46875 599.53515625 C-173.92161713 590.78842526 -182.88947162 581.7012839 -191.61230469 572.22802734 C-193.32845574 570.36817504 -195.05610164 568.51996199 -196.7890625 566.67578125 C-202.96119145 560.08929959 -208.80777818 553.30844114 -214.4375 546.25 C-215.3467663 545.13208806 -216.2569716 544.0149394 -217.16796875 542.8984375 C-237.46780299 517.92712178 -255.59847949 491.26016608 -271.4375 463.25 C-272.18241699 461.93950684 -272.18241699 461.93950684 -272.94238281 460.60253906 C-311.92473029 391.68053289 -334.80568011 315.61277121 -344.4375 237.25 C-344.52320251 236.56897217 -344.60890503 235.88794434 -344.69720459 235.1862793 C-347.65032491 211.51220639 -347.74824623 187.73682063 -347.80541611 163.91494751 C-347.81236622 161.48428598 -347.82402137 159.05368518 -347.83657837 156.62304688 C-347.9119732 139.70081389 -347.59195376 122.90986043 -346.0390625 106.05078125 C-345.94528887 105.02461228 -345.94528887 105.02461228 -345.84962082 103.97771263 C-343.92020082 83.38715979 -343.92020082 83.38715979 -340.87109375 78.9921875 C-317.05293169 61.9409832 -289.93502237 49.99674514 -262.4375 40.25 C-261.35291504 39.86505371 -260.26833008 39.48010742 -259.15087891 39.08349609 C-200.93788681 18.64000454 -139.58034367 7.5605784 -78.1875 2.625 C-77.01929214 2.53079773 -77.01929214 2.53079773 -75.82748413 2.43469238 C-70.36666018 1.99986625 -64.9037666 1.60972995 -59.4375 1.25 C-58.69660126 1.19980713 -57.95570251 1.14961426 -57.19235229 1.09790039 C-38.1586551 -0.14375892 -19.06519132 0.00289797 0 0 Z " fill="#19242D" transform="translate(510.4375,135.75)"/>
<path d="M0 0 C0.64895233 0.22041962 1.29790466 0.44083923 1.96652222 0.66793823 C17.00600861 5.77704824 31.70627463 11.66876021 46.375 17.75 C47.4592627 18.19327637 48.54352539 18.63655273 49.66064453 19.09326172 C52.61217313 20.30034882 55.5572737 21.52163451 58.5 22.75 C59.77919312 23.27412476 59.77919312 23.27412476 61.08422852 23.80883789 C69.09784222 27.21530733 69.09784222 27.21530733 71.375 30.75 C76.778444 52.99605739 75.74521309 76.81846094 75.6875 99.5625 C75.68527805 101.10926304 75.68310151 102.65602614 75.68096924 104.20278931 C75.6389758 126.18618392 75.28238101 147.92477831 72.375 169.75 C72.14737907 171.50031488 71.91984533 173.25064109 71.69238281 175.00097656 C67.18979251 209.3325264 67.18979251 209.3325264 63.375 225.75 C62.715 225.42 62.055 225.09 61.375 224.75 C61.08625 223.780625 60.7975 222.81125 60.5 221.8125 C59.68190753 218.69301751 59.68190753 218.69301751 57.4375 217.375 C55.25567404 216.6049963 55.25567404 216.6049963 52.375 216.75 C47.33729884 207.19375009 47.33729884 207.19375009 46.3125 202.8125 C45.59341454 199.7133909 45.59341454 199.7133909 43.5625 197.6875 C41.39564559 196.49184874 41.39564559 196.49184874 39.08984375 197.36328125 C35.74558568 199.0714994 33.33763364 201.33617136 30.75 204 C30.23655029 204.52650146 29.72310059 205.05300293 29.1940918 205.59545898 C16.89745715 217.60325378 16.89745715 217.60325378 12.390625 233.3984375 C12.3678615 236.82434401 11.38784787 239.01827789 9.375 241.75 C6.6875 242.625 6.6875 242.625 4.375 242.75 C-2.64439699 232.22090452 -7.02997861 221.99380845 -9.24438477 209.57861328 C-9.61370327 207.61643576 -10.10910115 205.67883 -10.625 203.75 C-13.49213169 202.68149192 -13.49213169 202.68149192 -16.078125 202.4609375 C-19.39839901 201.53411255 -20.31469799 200.09565522 -22.375 197.375 C-28.68926302 189.98497365 -36.14074337 189.63051268 -45.31811523 188.00976562 C-55.69964074 186.10040815 -65.16655602 183.22880815 -73.625 176.75 C-76.89210876 175.8819583 -76.89210876 175.8819583 -79.625 175.75 C-78.36181013 182.69754427 -75.76856901 189.78398372 -69.796875 194.05859375 C-66.87131243 194.98993291 -64.75768775 194.46939389 -61.75 193.9375 C-56.27096926 193.36146498 -56.27096926 193.36146498 -53.5078125 195.0234375 C-51.01187797 197.75821744 -49.79886457 200.1214127 -48.8125 203.6875 C-50.60610178 210.44799903 -56.27122583 214.78346811 -62.0234375 218.33984375 C-64.00656684 219.47174892 -65.99901193 220.58747361 -68 221.6875 C-68.99 222.26306641 -69.98 222.83863281 -71 223.43164062 C-77.02456539 226.8055562 -81.70684886 228.52798894 -88.625 228.75 C-91.53461843 224.97827241 -93.20631648 221.36450601 -94.8125 216.875 C-97.58921092 209.39401432 -101.38605794 202.73511926 -105.39599609 195.86865234 C-107.53290959 192.18487497 -109.60624075 188.46540545 -111.6875 184.75 C-112.44894531 183.39567956 -113.21063792 182.04149811 -113.97265625 180.6875 C-114.51792969 179.718125 -115.06320312 178.74875 -115.625 177.75 C-112.65913861 175.77275907 -111.45020351 175.4323331 -108.0625 174.9375 C-99.92864313 173.41537474 -93.04517366 170.04439522 -87.625 163.75 C-87.295 163.42 -86.965 163.09 -86.625 162.75 C-86.09196707 155.55050186 -87.43802094 150.60903478 -90.3125 144.0625 C-91.04581011 142.30532909 -91.77757438 140.54751228 -92.5078125 138.7890625 C-92.8677832 137.93473633 -93.22775391 137.08041016 -93.59863281 136.20019531 C-95.0232192 132.79935112 -96.38059272 129.38566778 -97.6875 125.9375 C-98.09097656 124.89980469 -98.49445313 123.86210937 -98.91015625 122.79296875 C-100.00710559 118.12344124 -99.1212625 114.23878749 -97.625 109.75 C-96.71515336 102.59055106 -98.27158554 96.10280276 -101.625 89.75 C-105.97201156 84.46622323 -111.03338152 82.12485338 -117.84375 81.4140625 C-126.49506448 81.23137437 -126.49506448 81.23137437 -133.625 85.75 C-139.36426977 91.88968394 -142.04870733 96.83507997 -141.9375 105.3125 C-141.93363281 106.59253906 -141.92976562 107.87257813 -141.92578125 109.19140625 C-141.64293877 112.53776334 -140.9087246 114.70049911 -139.625 117.75 C-140.59561932 127.61796305 -146.18569279 137.59103919 -151.625 145.75 C-153.9375 145.3125 -153.9375 145.3125 -156.625 143.75 C-157.4140625 141.9296875 -157.4140625 141.9296875 -158.0625 139.6875 C-160.73653791 130.46871736 -166.78682595 123.2292569 -174.625 117.75 C-175.615 117.75 -176.605 117.75 -177.625 117.75 C-177.20297204 122.9349149 -175.79201175 125.12940612 -172.125 128.75 C-168.4887636 132.34020809 -166.83076663 134.55782206 -166.625 139.75 C-167.41379599 142.76688856 -168.72439049 145.27684663 -170.625 147.75 C-173.375 148.75 -173.375 148.75 -175.625 148.75 C-176.3125 146.4375 -176.3125 146.4375 -176.625 143.75 C-175.6456121 142.72980427 -174.64604551 141.72850195 -173.625 140.75 C-173.59242265 138.81987975 -173.59242265 138.81987975 -174.625 136.75 C-177.0526014 134.47382698 -177.0526014 134.47382698 -180 132.3125 C-185.30548272 128.28789239 -185.30548272 128.28789239 -187.25390625 125.0078125 C-187.70636719 124.26273438 -188.15882813 123.51765625 -188.625 122.75 C-194.89040329 121.54088708 -199.02455031 123.35950962 -204.30078125 126.77734375 C-208.22269013 130.10602272 -210.261043 134.25635202 -212.625 138.75 C-217.16723472 146.00958335 -217.16723472 146.00958335 -221.625 147.75 C-227.16398263 148.44621223 -232.47170456 147.85338589 -237.625 145.75 C-240.07012729 142.31537304 -239.95641154 138.86475109 -240 134.75 C-240.02835938 133.533125 -240.05671875 132.31625 -240.0859375 131.0625 C-239.625 127.75 -239.625 127.75 -238.0390625 125.3203125 C-234.74385474 123.17682784 -232.51777857 123.41881469 -228.625 123.625 C-222.82077163 123.98093069 -222.82077163 123.98093069 -217.625 121.75 C-217.93999133 118.18009831 -218.88545234 116.20920452 -221.1875 113.5625 C-223.625 110.75 -223.625 110.75 -223.625 108.75 C-221.33831787 107.24362178 -219.06084385 105.85716107 -216.6875 104.5 C-215.30752935 103.69452915 -213.92861932 102.88723842 -212.55078125 102.078125 C-211.87740723 101.68302734 -211.2040332 101.28792969 -210.51025391 100.88085938 C-207.37096047 98.99777116 -204.36051491 96.93756854 -201.359375 94.84375 C-199.625 93.75 -199.625 93.75 -196.625 92.75 C-194.22551566 89.0174688 -193.38202751 85.31196599 -194.0625 80.9375 C-194.248125 80.215625 -194.43375 79.49375 -194.625 78.75 C-190.9831309 79.06216021 -189.86885398 79.46434248 -187.4375 82.3125 C-183.91561393 85.36480126 -182.06369953 85.47397265 -177.5234375 85.2421875 C-170.12751388 83.98627594 -162.59022015 81.57480268 -157.625 75.75 C-157.109375 74.780625 -156.59375 73.81125 -156.0625 72.8125 C-152.93154019 68.87872998 -149.69956641 67.7254676 -145.0859375 65.92578125 C-142.3349305 64.86916213 -142.3349305 64.86916213 -140.625 61.75 C-141.21667969 61.72421875 -141.80835938 61.6984375 -142.41796875 61.671875 C-147.67481899 61.29454807 -150.80248357 60.69197007 -154.625 56.75 C-156.06468406 53.87063188 -155.927823 51.95992381 -155.625 48.75 C-154.73046875 46.94140625 -154.73046875 46.94140625 -153.625 45.125 C-151.28513174 41.83032043 -151.28513174 41.83032043 -151.625 37.75 C-156.83245528 38.40241467 -159.32114047 42.30695484 -162.5703125 46.078125 C-166.83774374 51.6274082 -167.62859141 56.57419341 -168.5 63.4375 C-169.08738324 67.59251425 -169.44780212 69.49404751 -171.875 73 C-174.88510629 74.91552219 -177.0853691 75.50304901 -180.625 75.75 C-182.275 72.45 -183.925 69.15 -185.625 65.75 C-188.55542859 66.22704651 -191.43459939 66.70129287 -194.3125 67.4375 C-196.625 67.75 -196.625 67.75 -199.625 65.75 C-200.46719471 61.16471767 -199.65688691 58.28306435 -197.25 54.4375 C-194.01813083 49.94330076 -190.18691414 46.19988571 -186.2109375 42.3671875 C-183.58079994 39.7052658 -181.26357606 36.92942684 -178.9375 34 C-171.27593824 24.5458718 -161.84991137 17.55619158 -149.65234375 15.16796875 C-135.95884906 14.64796262 -121.29457422 18.762231 -109.625 25.75 C-111.5 31.625 -111.5 31.625 -112.625 32.75 C-115.99129251 32.89636054 -118.40919562 32.82193479 -121.625 31.75 C-122.615 32.245 -122.615 32.245 -123.625 32.75 C-124.7827506 36.22325181 -124.69366652 39.11067448 -124.625 42.75 C-117.66534521 43.6245116 -112.73705103 43.45590669 -106.9375 39.25 C-104.30258594 37.13907453 -101.86078863 34.99098985 -99.5 32.578125 C-91.82274177 24.84270572 -82.41225069 23.58377862 -72.0234375 22.05859375 C-71.26740234 21.94233643 -70.51136719 21.8260791 -69.73242188 21.70629883 C-68.28676792 21.49175898 -66.83727027 21.30118488 -65.38476562 21.1394043 C-60.37844429 20.4251675 -58.29417133 18.78125377 -55.07714844 15.18945312 C-52.81865634 12.95070575 -50.29528784 12.17447864 -47.3125 11.1875 C-39.17300918 8.27921161 -32.93812719 5.71202873 -27.625 -1.25 C-18.46685868 -7.28604769 -9.47501878 -3.27056175 0 0 Z " fill="#FDC23F" transform="translate(754.625,206.25)"/>
<path d="M0 0 C10.07227479 0.02525243 18.20431148 1.36791756 25.85717773 8.47802734 C28.93741448 11.76046781 31.75830105 15.23930231 34.55639648 18.76318359 C36.19941215 20.82464519 37.88446025 22.79427496 39.64233398 24.75537109 C41.6753058 27.4236466 42.35042371 29.0720547 42.64233398 32.38037109 C42.08803711 32.68330078 41.53374023 32.98623047 40.96264648 33.29833984 C36.48910275 35.88535357 34.28244361 37.3233664 32.64233398 42.38037109 C29.26145858 45.00994085 25.77573832 44.8626016 21.64233398 44.38037109 C17.87038369 42.5455526 14.60741529 40.3454524 11.64233398 37.38037109 C11.99532406 33.93871789 12.6881509 32.31164571 14.64233398 29.38037109 C15.21602782 23.83315909 15.21602782 23.83315909 13.14233398 18.88037109 C9.50224676 16.69631876 6.84578665 17.10014092 2.64233398 17.38037109 C1.65233398 22.33037109 0.66233398 27.28037109 -0.35766602 32.38037109 C-2.33766602 32.53505859 -2.33766602 32.53505859 -4.35766602 32.69287109 C-14.31448429 34.62733864 -27.73125456 44.14477304 -33.79516602 52.31787109 C-34.59289104 55.24286284 -34.02896001 57.45108821 -33.35766602 60.38037109 C-33.25454102 61.12287109 -33.15141602 61.86537109 -33.04516602 62.63037109 C-32.06928707 65.11442658 -30.77135813 65.29625514 -28.35766602 66.38037109 C-27.46950195 66.74775391 -26.58133789 67.11513672 -25.66625977 67.49365234 C-24.71879883 67.88939453 -23.77133789 68.28513672 -22.79516602 68.69287109 C-21.84512695 69.08087891 -20.89508789 69.46888672 -19.91625977 69.86865234 C-16.07992691 72.13531007 -14.80390129 74.97791737 -13.48266602 79.13037109 C-12.92579102 80.24412109 -12.92579102 80.24412109 -12.35766602 81.38037109 C-9.82689057 82.05539673 -9.82689057 82.05539673 -7.35766602 82.38037109 C-7.01993164 81.75388672 -6.68219727 81.12740234 -6.33422852 80.48193359 C-5.88821289 79.66466797 -5.44219727 78.84740234 -4.98266602 78.00537109 C-4.54180664 77.19326172 -4.10094727 76.38115234 -3.64672852 75.54443359 C-2.35766602 73.38037109 -2.35766602 73.38037109 -0.35766602 71.38037109 C-0.3172809 69.3178456 -0.37361919 67.25290778 -0.48266602 65.19287109 C-0.59267127 58.08181697 0.5243663 54.60227103 5.51733398 49.44287109 C8.49599856 47.95353881 10.34350943 47.91853566 13.64233398 48.38037109 C19.5702082 51.3443082 23.42652418 56.37275945 27.64233398 61.38037109 C30.39874814 60.88281017 30.39874814 60.88281017 32.64233398 59.38037109 C34.30850514 59.33973277 35.97621493 59.33765009 37.64233398 59.38037109 C37.94526367 60.47736328 38.24819336 61.57435547 38.56030273 62.70458984 C38.98262766 64.1592646 39.40585261 65.61367827 39.82983398 67.06787109 C40.02641602 67.78910156 40.22299805 68.51033203 40.42553711 69.25341797 C41.89609322 74.20806086 43.73043662 76.84287974 47.64233398 80.38037109 C48.32983398 82.94287109 48.32983398 82.94287109 47.64233398 85.38037109 C43.01933629 89.10626125 38.64244192 90.4270895 32.89233398 91.63037109 C32.1253418 91.80310547 31.35834961 91.97583984 30.56811523 92.15380859 C25.02911474 93.38037109 25.02911474 93.38037109 22.64233398 93.38037109 C22.64233398 94.70037109 22.64233398 96.02037109 22.64233398 97.38037109 C23.65295898 98.14349609 24.66358398 98.90662109 25.70483398 99.69287109 C26.67420898 100.57974609 27.64358398 101.46662109 28.64233398 102.38037109 C28.7029227 105.89451687 28.50180843 108.14559281 26.47045898 111.06396484 C23.80510159 112.98324997 21.57952922 112.75415158 18.32983398 112.81787109 C12.89649848 113.15482213 9.67155647 113.44708248 5.64233398 117.38037109 C3.13849179 120.60988436 0.86711083 123.95432249 -1.35766602 127.38037109 C-2.16920504 128.58935005 -2.98150575 129.79781875 -3.79516602 131.00537109 C-4.56860352 132.18099609 -4.56860352 132.18099609 -5.35766602 133.38037109 C-7.85766602 131.13037109 -7.85766602 131.13037109 -10.35766602 128.38037109 C-10.35766602 124.38037109 -10.35766602 124.38037109 -8.85766602 121.31787109 C-6.69222505 116.43255258 -6.44651227 111.61950515 -7.35766602 106.38037109 C-9.81970983 100.98849514 -13.37091998 96.62175602 -18.35766602 93.38037109 C-19.20329102 92.80287109 -20.04891602 92.22537109 -20.92016602 91.63037109 C-27.3291841 89.29981906 -34.50800288 89.154077 -40.79516602 92.00537109 C-44.57619397 94.23319669 -46.84502145 96.79087886 -49.35766602 100.38037109 C-49.95579102 101.22599609 -50.55391602 102.07162109 -51.17016602 102.94287109 C-53.16331248 108.71250559 -53.84375667 115.85709783 -51.42016602 121.60302734 C-50.40850194 123.20131607 -49.38388425 124.79138802 -48.35766602 126.38037109 C-48.76204726 130.85235193 -50.61884574 134.9744787 -52.23266602 139.13037109 C-53.93577458 143.53826986 -55.54261953 147.88171125 -56.79516602 152.44287109 C-58.09137823 156.44389608 -60.23673342 158.44173971 -63.31079102 161.22021484 C-66.04429743 164.1050031 -68.10445767 167.28464347 -70.23266602 170.63037109 C-70.62599121 171.24549561 -71.01931641 171.86062012 -71.42456055 172.49438477 C-74.85024138 177.9635992 -75.5167266 181.97692577 -75.48266602 188.31787109 C-75.4865332 189.03394531 -75.49040039 189.75001953 -75.49438477 190.48779297 C-75.48801895 193.92215266 -75.43717044 197.09902036 -74.35766602 200.38037109 C-68.29366938 200.70394404 -63.55673675 200.92519205 -58.35766602 197.38037109 C-57.30028853 196.31236669 -56.25902511 195.22821788 -55.23266602 194.13037109 C-54.28391602 193.22287109 -53.33516602 192.31537109 -52.35766602 191.38037109 C-50.17797852 191.70849609 -50.17797852 191.70849609 -48.35766602 192.38037109 C-48.85891705 197.3928814 -50.03592591 200.93878132 -52.35766602 205.38037109 C-52.35766602 206.37037109 -52.35766602 207.36037109 -52.35766602 208.38037109 C-51.45274414 208.49251953 -51.45274414 208.49251953 -50.52954102 208.60693359 C-46.40280301 209.28584856 -43.97205856 209.7817322 -40.92016602 212.75537109 C-39.06713333 217.05440692 -38.61463084 221.06809927 -37.99047852 225.68115234 C-37.14139997 229.30283922 -35.34237835 230.31403179 -32.35766602 232.38037109 C-31.54516602 236.13037109 -31.54516602 236.13037109 -31.35766602 239.38037109 C-37.38556162 239.07897631 -41.08153169 236.38035585 -45.35766602 232.38037109 C-46.51692596 230.94912077 -47.64157976 229.48924841 -48.73266602 228.00537109 C-55.37042882 219.09995629 -62.97617492 214.72199609 -73.35766602 211.38037109 C-75.97860035 210.4429415 -78.57532728 209.44997556 -81.17016602 208.44287109 C-82.39348633 207.98009766 -83.61680664 207.51732422 -84.87719727 207.04052734 C-89.50217852 204.83444762 -93.15018667 202.94207104 -95.36816406 198.23657227 C-96.27485013 195.65952612 -97.0499467 193.07104557 -97.79516602 190.44287109 C-99.83138911 183.85226904 -101.92884149 177.45132958 -104.98266602 171.25537109 C-105.51118164 170.18029297 -106.03969727 169.10521484 -106.58422852 167.99755859 C-108.53662707 165.11626557 -110.26577499 163.91048781 -113.35766602 162.38037109 C-113.08051758 163.20279297 -112.80336914 164.02521484 -112.51782227 164.87255859 C-110.28804464 171.74439996 -108.68394021 178.15339764 -108.35766602 185.38037109 C-109.01766602 185.38037109 -109.67766602 185.38037109 -110.35766602 185.38037109 C-111.42221466 182.81870505 -112.48472474 180.25623799 -113.54516602 177.69287109 C-113.86614258 176.9177417 -114.18711914 176.1426123 -114.51782227 175.34399414 C-116.38143829 170.82146396 -118.15986503 166.28090855 -119.85766602 161.69287109 C-122.12814823 155.68366151 -124.93547082 150.06287972 -127.90454102 144.37646484 C-131.73640633 136.4758178 -131.96892412 125.85321581 -129.24047852 117.48583984 C-128.78415039 116.25478516 -128.32782227 115.02373047 -127.85766602 113.75537109 C-123.73673534 102.58671239 -124.95519734 92.70260138 -127.50219727 81.27099609 C-128.105585 78.52682172 -128.64753134 75.81798564 -129.11938477 73.05224609 C-129.30537231 71.97595947 -129.30537231 71.97595947 -129.49511719 70.87792969 C-129.83870158 68.86639923 -130.17647899 66.85387941 -130.51391602 64.84130859 C-131.37213953 61.32100289 -132.05061443 59.16642915 -134.35766602 56.38037109 C-139.72561858 53.29095021 -144.19708722 52.98907926 -150.29516602 53.19287109 C-151.0744043 53.20640625 -151.85364258 53.21994141 -152.65649414 53.23388672 C-154.55719006 53.26886885 -156.45752436 53.3226615 -158.35766602 53.38037109 C-158.99695848 26.35250626 -158.99695848 26.35250626 -154.79516602 20.02880859 C-147.82859647 13.42742213 -139.64203438 11.10014535 -130.27734375 11.24047852 C-125.7356505 11.45808787 -121.28836118 12.08085076 -116.79516602 12.75537109 C-110.34412732 13.68627776 -103.94661015 14.45599731 -97.43579102 14.81396484 C-96.28667236 14.87986816 -95.13755371 14.94577148 -93.95361328 15.01367188 C-91.74164379 15.12996624 -89.52839439 15.22468122 -87.31445312 15.29394531 C-80.53636251 15.66211681 -76.17884917 17.09223646 -70.60498047 21.01196289 C-65.20784399 24.29832356 -58.71812469 23.56379745 -52.60766602 23.56787109 C-51.18067383 23.58624023 -51.18067383 23.58624023 -49.72485352 23.60498047 C-40.82063403 23.74412548 -40.82063403 23.74412548 -32.35766602 21.38037109 C-30.37260406 19.28443755 -29.26715693 17.00503689 -28.10766602 14.38037109 C-25.75580192 9.33197315 -24.93665597 7.61196708 -19.35766602 5.38037109 C-18.36766602 12.80537109 -18.36766602 12.80537109 -17.35766602 20.38037109 C-14.05766602 20.05037109 -10.75766602 19.72037109 -7.35766602 19.38037109 C-7.38086914 18.17638672 -7.40407227 16.97240234 -7.42797852 15.73193359 C-7.44673464 14.15641895 -7.46493501 12.58089761 -7.48266602 11.00537109 C-7.49942383 10.21130859 -7.51618164 9.41724609 -7.53344727 8.59912109 C-7.55102074 6.52545094 -7.46101769 4.45153868 -7.35766602 2.38037109 C-4.89185604 -0.08543888 -3.37683062 0.07450396 0 0 Z " fill="#E13E38" transform="translate(353.357666015625,215.61962890625)"/>
<path d="M0 0 C2.25390625 1.15625 2.25390625 1.15625 4.25390625 4.15625 C4.47433594 5.27128906 4.69476562 6.38632812 4.921875 7.53515625 C6.71050465 12.39750136 9.16438553 13.68082158 13.56640625 16.09375 C14.23091797 16.49142578 14.89542969 16.88910156 15.58007812 17.29882812 C19.14768898 19.34905751 22.02565323 20.96937558 26.25390625 20.15625 C28.11635005 17.74766286 28.11635005 17.74766286 29.25390625 15.15625 C34.51693556 16.76640052 39.26131639 19.10288688 44.14477539 21.58764648 C47.58620546 23.23894927 50.44866369 24.33767565 54.28515625 24.5078125 C58.65172933 24.74360745 61.40153579 25.03926341 65.25390625 27.15625 C68.96415066 32.89710114 70.48031744 39.83824643 72.36230469 46.34033203 C73.63606828 50.36322065 75.36908688 54.04630348 77.31640625 57.78125 C77.64954834 58.42296143 77.98269043 59.06467285 78.32592773 59.72583008 C79.28629348 61.54493681 80.26616534 63.35188886 81.25390625 65.15625 C81.84042969 66.24421875 82.42695312 67.3321875 83.03125 68.453125 C86.98783558 75.52294232 91.49506963 82.39741338 97.25390625 88.15625 C98.81339167 88.31311249 100.37933293 88.40701639 101.9453125 88.47265625 C102.88955078 88.51455078 103.83378906 88.55644531 104.80664062 88.59960938 C105.79986328 88.63892578 106.79308594 88.67824219 107.81640625 88.71875 C109.31204102 88.78352539 109.31204102 88.78352539 110.83789062 88.84960938 C113.30974775 88.95605298 115.78170935 89.05806928 118.25390625 89.15625 C119.65827126 96.55617333 118.29003252 99.98588213 114.25390625 106.15625 C109.04816618 113.08289588 103.38342485 119.19092342 96.87890625 124.90625 C91.2049145 129.95620171 86.74527446 134.42233671 85.93359375 142.2421875 C85.87122839 145.92174375 85.81773487 149.48887416 86.75390625 153.06762695 C87.6202489 156.68655338 87.56304166 160.32487007 87.62890625 164.03125 C87.68498047 165.21654297 87.68498047 165.21654297 87.7421875 166.42578125 C87.80345771 170.51726998 87.62859397 173.2508122 84.9921875 176.4921875 C82.72497517 178.69794899 80.48383652 180.86756606 78.06640625 182.90625 C76.05489927 184.61391558 74.12067212 186.28948413 72.25390625 188.15625 C72.10413586 190.40280587 72.03240451 192.65488768 72.00390625 194.90625 C71.61738192 201.59244286 71.61738192 201.59244286 70.0703125 203.9921875 C69.04494106 204.87107731 67.99507839 205.72198863 66.92578125 206.546875 C64.63925528 208.74792336 63.64517711 211.15939039 62.31640625 214.03125 C57.67017752 223.71989751 52.34326296 229.21852787 42.25390625 233.15625 C38.47421195 234.25335228 35.2022246 234.57186246 31.25390625 234.15625 C26.2744031 230.2387262 24.42842131 225.65255667 22.25390625 219.90625 C21.91214355 219.02815674 21.57038086 218.15006348 21.21826172 217.24536133 C18.07564855 209.01361314 15.56834637 200.65150113 13.25390625 192.15625 C12.70283203 190.31740234 12.70283203 190.31740234 12.140625 188.44140625 C10.16098112 181.10713092 11.37059849 175.18601928 13.51953125 168.01953125 C14.69051445 163.4539425 14.99061747 158.85005347 15.25390625 154.15625 C16.13691406 154.05828125 17.01992188 153.9603125 17.9296875 153.859375 C28.94510039 152.48688532 39.55359843 150.83936951 47.06640625 142.03125 C48.88875563 137.61924624 49.06159678 133.85674408 48.25390625 129.15625 C47.03366446 126.22247719 45.57521004 123.50627693 44.05078125 120.71875 C41.83542511 116.32656565 40.12625808 111.83549896 38.44140625 107.21875 C38.13968506 106.40156494 37.83796387 105.58437988 37.52709961 104.74243164 C33.78581948 94.40291325 33.78581948 94.40291325 35.03125 91.0859375 C35.41410156 90.40789062 35.79695312 89.72984375 36.19140625 89.03125 C39.33999083 82.46076621 39.34760503 75.65696299 37.00390625 68.78125 C34.16629048 62.34406607 30.42086897 59.23973136 24.25390625 56.15625 C17.34492554 53.48180585 11.03028561 55.30016333 4.55078125 58.0859375 C3.41382813 58.61574219 3.41382813 58.61574219 2.25390625 59.15625 C1.5371875 59.44757813 0.82046875 59.73890625 0.08203125 60.0390625 C-2.22678528 61.45000594 -2.7198495 62.68145746 -3.74609375 65.15625 C-4.09929687 65.80722656 -4.4525 66.45820313 -4.81640625 67.12890625 C-7.83653986 73.11324507 -8.77953503 78.49301434 -7.74609375 85.15625 C-6.8382422 87.37502411 -5.77167789 89.37671092 -4.5859375 91.45703125 C-3.74609375 93.15625 -3.74609375 93.15625 -3.74609375 95.71875 C-5.12235812 99.0733944 -6.86195123 102.05653167 -8.74609375 105.15625 C-11.8690001 104.67046457 -14.74189734 104.1576488 -17.74609375 103.15625 C-24.01056139 102.64646547 -29.74608006 102.97837415 -35.80859375 104.65625 C-41.966121 106.33264485 -48.62704792 107.89737309 -54.7421875 105.3125 C-62.47242836 100.21639467 -70.63749418 90.37344913 -74.74609375 82.15625 C-75.07544191 77.70463014 -75.07105811 73.24351966 -75.12109375 68.78125 C-75.17716797 66.94240234 -75.17716797 66.94240234 -75.234375 65.06640625 C-75.33001742 55.04520606 -73.37461597 47.14317345 -67.4296875 38.97265625 C-66.31787109 37.85697266 -66.31787109 37.85697266 -65.18359375 36.71875 C-60.45626486 31.87671989 -56.67833232 27.24413472 -53.43359375 21.28125 C-49.79582365 14.92884287 -45.83505179 10.21555536 -39.74609375 6.15625 C-37.7578125 5.953125 -37.7578125 5.953125 -35.43359375 5.90625 C-30.69149398 5.55472807 -27.21489815 4.13405913 -22.93359375 2.09375 C-15.36868707 -1.35009944 -8.06464016 -2.47789797 0 0 Z " fill="#48A255" transform="translate(564.74609375,355.84375)"/>
<path d="M0 0 C3.19357039 0.82539138 6.20529807 1.83400688 9.28515625 3.01171875 C11.6741716 3.88138909 13.75251511 4.32237063 16.25 4.6875 C21.04705041 6.36646764 22.84202312 8.96695418 26.0078125 12.81640625 C28.92862004 16.0178404 32.00702033 17.46535754 36 19 C48.80006031 23.92008444 48.80006031 23.92008444 52.25 28.75 C53.1729942 31.5189826 53.19638515 34.09016025 53.16796875 37 C54.58580519 40.40813267 57.79253048 41.56510935 61 43 C63.84114449 44.05778307 66.7229305 44.93834881 69.625 45.8125 C90.38409348 52.40804849 90.38409348 52.40804849 95 60 C96.18593663 65.53437094 93.42822105 69.19315579 90.60546875 73.73046875 C87.0035532 78.82222772 87.0035532 78.82222772 83.94921875 79.36328125 C82.82966797 79.33814453 82.82966797 79.33814453 81.6875 79.3125 C80.94886719 79.30863281 80.21023438 79.30476562 79.44921875 79.30078125 C77 79 77 79 74.10546875 78.0234375 C68.69285515 76.23965792 63.60397699 75.94537702 58 77 C47.89909345 83.13703961 40.55216451 101.03903523 37 112 C36.53863601 114.9475398 36.53863601 114.9475398 36.625 117.6875 C36.61726563 118.57824219 36.60953125 119.46898437 36.6015625 120.38671875 C37.09544549 123.62601011 37.99008795 125.41088749 40 128 C42.54384187 129.62378221 42.54384187 129.62378221 45.4375 130.75 C46.38496094 131.15734375 47.33242188 131.5646875 48.30859375 131.984375 C50.53968077 132.82629463 52.67426296 133.49416594 55 134 C54.20481946 139.87210243 51.16840541 142.98780703 47 147 C45.74880903 147.86254447 44.47877446 148.698706 43.1875 149.5 C41.09813239 150.87129227 40.169537 151.54290576 39.29296875 153.90625 C39.01565699 155.29540051 38.75247136 156.68745018 38.50390625 158.08203125 C37.50190385 161.89585435 34.48013692 164.06744736 31.2578125 166.09765625 C26.51401805 169.1007021 24.84053967 171.74388681 23.1171875 177.109375 C22.74851562 177.73328125 22.37984375 178.3571875 22 179 C20.35 179.33 18.7 179.66 17 180 C16.34 183.96 15.68 187.92 15 192 C15.99 192 16.98 192 18 192 C17.67 192.99 17.34 193.98 17 195 C14.80754062 202.98567322 15.89793413 207.70828901 19.90625 214.80078125 C21 217 21 217 21 220 C17.08133534 220.31349317 14.52555751 220.24669026 10.9375 218.5625 C3.38430656 211.97354402 -0.3371306 203.6483672 -1.19775391 193.71826172 C-1.52141752 188.82320763 -1.72011858 183.92771697 -1.84228516 179.02368164 C-1.94483249 176.98252558 -1.94483249 176.98252558 -2.50488281 174.98193359 C-3.35781329 171.56768822 -3.14265642 168.06141451 -3.125 164.5625 C-3.13080078 163.46518555 -3.13080078 163.46518555 -3.13671875 162.34570312 C-3.12916546 157.93835893 -2.89995427 153.60114861 -2.51171875 149.2109375 C-1.82471483 140.7574531 -1.7417859 132.30885874 -1.70483398 123.83178711 C-1.69319907 121.97298643 -1.67257103 120.11422201 -1.64331055 118.25561523 C-1.6006949 115.53607055 -1.58448976 112.81749288 -1.57421875 110.09765625 C-1.55671066 109.27258072 -1.53920258 108.44750519 -1.52116394 107.59742737 C-1.5412692 102.24780269 -2.46035256 99.24886495 -6 95 C-7.4225396 93.80554691 -8.84796055 92.61316787 -10.31542969 91.47436523 C-21.12885372 82.8955636 -31.20213304 66.34324312 -33.37890625 52.609375 C-33.86761557 44.99798725 -31.80247121 40.16804825 -27.99316406 33.79345703 C-24.65275932 27.97224503 -24.07930694 23.08779796 -23.4765625 16.39453125 C-22.62326445 10.31653119 -20.08031314 6.00576267 -15.7109375 1.79296875 C-10.83895099 -1.42928169 -5.62727646 -0.6434778 0 0 Z " fill="#48A255" transform="translate(352,440)"/>
<path d="M0 0 C3.15985637 2.51994132 6.13522531 5.15003034 9 8 C6.17411516 13.38427087 2.95006545 17.56159449 -1.25 21.9375 C-1.80429687 22.52595703 -2.35859375 23.11441406 -2.9296875 23.72070312 C-4.28037471 25.15289733 -5.63932988 26.57728675 -7 28 C-9.98041321 26.59389083 -12.61237645 24.94731093 -15.3125 23.0625 C-24.73267262 16.72051186 -33.69449556 15.08263907 -45 16 C-55.87557135 18.4685149 -63.49591582 24.09772986 -69.5234375 33.38671875 C-75.07592863 43.2137467 -75.6559679 55.28150553 -73.30859375 66.22265625 C-72.38931222 68.95742263 -71.31927756 71.43588687 -70 74 C-69.39865234 75.19882812 -69.39865234 75.19882812 -68.78515625 76.421875 C-64.46599794 83.88337748 -57.72014837 88.34739536 -49.6640625 91.16796875 C-45.67451026 92.07391185 -41.88401808 92.382914 -37.8125 92.375 C-36.70527588 92.37584595 -36.70527588 92.37584595 -35.57568359 92.37670898 C-28.88135513 92.24386772 -23.16729589 90.5852806 -17 88 C-16.01 87.67 -15.02 87.34 -14 87 C-14.495 78.09 -14.495 78.09 -15 69 C-22.59 68.67 -30.18 68.34 -38 68 C-38 60.41 -38 52.82 -38 45 C-21.5 45 -5 45 12 45 C12.20708381 52.54705425 12.3860524 60.08419957 12.49438477 67.63183594 C12.5395487 70.19662934 12.60089601 72.76119224 12.67895508 75.32519531 C12.78857927 79.01945888 12.83926757 82.71065261 12.87890625 86.40625 C12.92535782 87.5461438 12.97180939 88.6860376 13.01966858 89.86047363 C13.02262244 94.55566305 13.00966398 97.71802613 10.03839111 101.49066162 C-5.54258174 115.53565436 -25.39741581 120.01685493 -45.81787109 119.13916016 C-63.10057541 118.0369962 -78.63607969 109.88814211 -90 97 C-102.30648384 80.8721372 -105.87105612 61.4465833 -103.609375 41.56640625 C-100.42674857 25.22484362 -91.50508564 11.11633208 -78.1875 1.1875 C-54.65846647 -14.09537692 -23.66183741 -16.13013234 0 0 Z " fill="#F8F8F8" transform="translate(625,626)"/>
<path d="M0 0 C3.79315764 -0.00222821 7.58604235 -0.02057584 11.37915039 -0.03930664 C13.79256086 -0.0422339 16.2059727 -0.04422315 18.61938477 -0.04516602 C19.75251602 -0.05235153 20.88564728 -0.05953705 22.05311584 -0.06694031 C23.61261208 -0.06232536 23.61261208 -0.06232536 25.20361328 -0.05761719 C26.11893326 -0.05904221 27.03425323 -0.06046722 27.97731018 -0.06193542 C30.17797852 0.18530273 30.17797852 0.18530273 32.17797852 2.18530273 C31.71327631 9.05210765 29.16066982 15.94126453 27.17797852 22.49780273 C25.34729228 28.57683998 23.92670998 34.23081377 23.42797852 40.56030273 C22.98046946 44.15882917 22.75882223 45.64245814 20.08813477 48.13842773 C18.34816558 49.2582876 16.57992139 50.3353205 14.78735352 51.36889648 C10.90107244 54.07416699 8.98164186 57.58532735 6.65063477 61.63452148 C6.1646582 62.4762793 5.67868164 63.31803711 5.17797852 64.18530273 C4.77579102 64.90459961 4.37360352 65.62389648 3.95922852 66.36499023 C1.32289508 69.059138 -1.84528412 69.68178102 -5.38452148 70.62280273 C-17.82235735 74.2394092 -30.00127908 79.40727588 -36.71655273 91.11889648 C-37.49082064 92.56620293 -38.25850636 94.01704102 -39.02124023 95.47045898 C-42.09211366 100.96315687 -42.09211366 100.96315687 -45.69702148 102.06030273 C-51.05117851 100.56113877 -54.40497921 97.67863224 -57.15405273 92.84155273 C-59.84310268 86.68429349 -61.24255205 81.00297863 -58.82202148 74.49780273 C-58.49202148 73.73467773 -58.16202148 72.97155273 -57.82202148 72.18530273 C-57.65403887 69.47643333 -57.65403887 69.47643333 -57.82202148 67.18530273 C-58.81202148 66.69030273 -58.81202148 66.69030273 -59.82202148 66.18530273 C-60.54243229 62.91516573 -61.08099263 59.65876846 -61.58959961 56.35131836 C-62.34273113 51.84501207 -63.33802876 48.11237695 -65.82202148 44.18530273 C-71.40006039 40.38041527 -79.20962392 40.76252775 -85.68530273 40.59155273 C-89.05466607 40.15517193 -90.45501604 39.58068954 -92.82202148 37.18530273 C-93.57202148 34.31030273 -93.57202148 34.31030273 -92.82202148 31.18530273 C-89.03951143 28.04662417 -85.16180688 26.28906742 -80.61108398 24.52905273 C-79.85690186 24.23442139 -79.10271973 23.93979004 -78.32568359 23.63623047 C-76.80086357 23.05134377 -75.26770548 22.48767925 -73.7265625 21.94726562 C-69.838373 20.47975244 -68.18542186 19.74189422 -65.84545898 16.15795898 C-64.74257447 13.2006199 -64.74257447 13.2006199 -64.25952148 10.06030273 C-62.27634801 6.09395579 -59.86478462 5.52090273 -55.81811523 4.04467773 C-49.0839785 2.11311309 -42.54575603 0.8644849 -35.54467773 0.57202148 C-34.3486367 0.51603035 -34.3486367 0.51603035 -33.12843323 0.45890808 C-22.09216735 -0.00004807 -11.04399886 -0.00072893 0 0 Z " fill="#E23E38" transform="translate(482.822021484375,165.814697265625)"/>
<path d="M0 0 C2.08599872 1.835027 4.0794065 3.69326554 6 5.69921875 C4.72036341 9.40122417 3.32322986 11.7401388 0.5234375 14.46875 C-0.146875 15.12939453 -0.8171875 15.79003906 -1.5078125 16.47070312 C-2.55582031 17.48100586 -2.55582031 17.48100586 -3.625 18.51171875 C-4.68460938 19.55102539 -4.68460938 19.55102539 -5.765625 20.61132812 C-7.50381806 22.31428754 -9.24863061 24.00983067 -11 25.69921875 C-13.6956504 24.44622987 -15.41130872 23.33573662 -17.6875 21.32421875 C-25.44433328 14.66987954 -34.67824222 13.3211585 -44.58203125 13.421875 C-53.02606679 14.10704817 -61.05061635 17.60631927 -67 23.69921875 C-73.44532454 32.29786763 -76.57548482 41.37163403 -76.4375 52.07421875 C-76.42992676 52.90348877 -76.42235352 53.73275879 -76.41455078 54.5871582 C-76.14424169 64.68428787 -73.19048177 73.39663593 -66 80.69921875 C-57.80620757 87.61912022 -48.73554772 90.37088945 -38.078125 90.04296875 C-28.23189923 88.94339024 -20.68217003 84.74977745 -13 78.69921875 C-7.40719502 81.57755405 -3.39642672 84.92123561 0.9375 89.44921875 C1.82018555 90.35220703 1.82018555 90.35220703 2.72070312 91.2734375 C4.15416829 92.74186523 5.578101 94.21958852 7 95.69921875 C-1.97493677 107.58494583 -16.35935145 114.23416171 -30.94140625 116.4140625 C-50.40739281 118.22889905 -68.42751196 115.21136682 -83.9140625 102.49609375 C-84.60242188 101.903125 -85.29078125 101.31015625 -86 100.69921875 C-86.60585938 100.18875 -87.21171875 99.67828125 -87.8359375 99.15234375 C-99.49876387 88.49220381 -105.54961863 73.29508174 -106.44140625 57.76953125 C-107.03238437 38.83447358 -103.65936687 22.7061662 -90.5625 8.38671875 C-88.73483512 6.46159865 -86.87473855 4.5794875 -85 2.69921875 C-84.41476562 2.09078125 -83.82953125 1.48234375 -83.2265625 0.85546875 C-61.54427968 -19.83625292 -22.65570678 -17.37527512 0 0 Z " fill="#F8F8F8" transform="translate(503,628.30078125)"/>
<path d="M0 0 C20.44612337 0.24032843 41.02803969 2.51586546 61.27685547 5.25097656 C62.42782715 5.40469727 63.57879883 5.55841797 64.76464844 5.71679688 C71.7569991 6.7170354 78.44937232 8.21970425 85.21435547 10.25097656 C85.21435547 12.89097656 85.21435547 15.53097656 85.21435547 18.25097656 C79.55438182 20.88509527 73.83684477 23.15239449 67.95605469 25.24316406 C55.05802578 29.85757231 43.12064518 35.50339123 31.21435547 42.25097656 C30.56853516 42.6003125 29.92271484 42.94964844 29.25732422 43.30957031 C19.5021794 48.60157698 12.43936852 55.67603254 5.13574219 63.95214844 C-0.37487078 69.89337022 -0.37487078 69.89337022 -4.36206055 70.90405273 C-9.54486814 71.06615238 -13.65204912 69.93345693 -18.22314453 67.43847656 C-19.21185547 66.91640625 -20.20056641 66.39433594 -21.21923828 65.85644531 C-24.81116024 63.60944391 -26.43609323 62.29963046 -27.78564453 58.25097656 C-28.20296318 51.97100407 -27.13492978 47.39903302 -24.91064453 41.56347656 C-24.27369552 39.82445371 -23.63838676 38.08482954 -23.00439453 36.34472656 C-22.65376953 35.39082031 -22.30314453 34.43691406 -21.94189453 33.45410156 C-20.63239906 29.82644518 -19.37495797 26.18217932 -18.12939453 22.53222656 C-17.90428192 21.87328903 -17.67916931 21.2143515 -17.44723511 20.53544617 C-16.54210302 17.88405959 -15.63798387 15.23233413 -14.73638916 12.57974243 C-14.10186476 10.71532546 -13.46337238 8.85226035 -12.82470703 6.98925781 C-12.45555176 5.90684814 -12.08639648 4.82443848 -11.70605469 3.70922852 C-9.75442352 -1.50323148 -4.86644132 0.0019216 0 0 Z " fill="#FCC33F" transform="translate(553.78564453125,166.7490234375)"/>
<path d="M0 0 C2 1.625 2 1.625 3 4 C2.78942989 10.00124801 2.78942989 10.00124801 0.77172852 12.55395508 C-1.4277103 14.34908752 -3.63563882 15.39999327 -6.22265625 16.57421875 C-7.30144043 17.06873535 -8.38022461 17.56325195 -9.49169922 18.07275391 C-10.67006348 18.60562012 -11.84842773 19.13848633 -13.0625 19.6875 C-14.94979151 20.55102106 -16.83582613 21.41725039 -18.72186279 22.2835083 C-20.05554631 22.89586569 -21.38957959 23.50746178 -22.72393799 24.11834717 C-30.63013991 27.73912797 -38.50581144 31.42457763 -46.375 35.125 C-47.09709656 35.46453705 -47.81919312 35.8040741 -48.56317139 36.15390015 C-64.92991732 43.85812551 -81.19044159 51.74383244 -97.00390625 60.5390625 C-99.74740817 61.87683267 -101.99402508 62.58576882 -105 63 C-105 63.66 -105 64.32 -105 65 C-103.7315625 65.37125 -103.7315625 65.37125 -102.4375 65.75 C-92.83516484 69.24175824 -92.83516484 69.24175824 -90.8125 73.5 C-91 76 -91 76 -92.671875 78.15625 C-96.39490978 81.10469365 -99.3357176 80.12269849 -103.875 79.6171875 C-108.91448876 78.89617631 -113.92916572 78.03568523 -118.9375 77.125 C-119.83718506 76.96386719 -120.73687012 76.80273438 -121.66381836 76.63671875 C-126.52268116 75.69989551 -130.74063919 74.65293522 -135 72 C-137 69 -137 69 -136.9140625 65.87109375 C-135.78190127 61.07634255 -133.81477027 57.31135769 -131.375 53.0625 C-130.70428467 51.87261475 -130.70428467 51.87261475 -130.02001953 50.65869141 C-126.89885236 45.24442182 -123.5632726 40.32150981 -119 36 C-114.125 36.875 -114.125 36.875 -113 38 C-112.84700935 42.58971948 -113.0642609 46.5043637 -114 51 C-112.47922852 50.21689453 -112.47922852 50.21689453 -110.92773438 49.41796875 C-99.80255762 43.69152118 -88.66734615 37.98486935 -77.52532959 32.29125977 C-75.21349941 31.10916721 -72.90272222 29.92504676 -70.59228516 28.74023438 C-55.83108348 21.17863877 -40.95449631 13.89003752 -25.85043335 7.03503418 C-24.25778295 6.31060959 -22.66756398 5.58081245 -21.07998657 4.84533691 C-18.872076 3.8257092 -16.65495464 2.82976028 -14.43359375 1.83984375 C-13.45913803 1.38341743 -13.45913803 1.38341743 -12.46499634 0.91777039 C-7.93568796 -1.05611503 -4.77773074 -1.17773185 0 0 Z " fill="#F7F7F7" transform="translate(536,489)"/>
<path d="M0 0 C5.19741939 0.58438646 8.42128452 2.68037436 12.73828125 5.50390625 C13.52783203 6.00543213 14.31738281 6.50695801 15.13085938 7.02368164 C17.40764648 8.47894521 19.66825023 9.95650338 21.92578125 11.44140625 C23.02277344 12.15039062 24.11976563 12.859375 25.25 13.58984375 C32.35706542 18.34172107 32.35706542 18.34172107 33.92578125 22.44140625 C34.07854774 25.80226908 33.49736417 27.72910368 31.38671875 30.359375 C27.3415733 34.52539133 22.93421857 38.15897385 18.2890625 41.6328125 C16.60145376 42.92432134 14.95672369 44.27265532 13.34375 45.65625 C12.48394531 46.38972656 11.62414062 47.12320313 10.73828125 47.87890625 C9.96097656 48.55824219 9.18367188 49.23757813 8.3828125 49.9375 C5.33582419 51.80250874 3.4402178 51.80161166 -0.07421875 51.44140625 C-2.01171875 50.37890625 -2.01171875 50.37890625 -3.07421875 48.44140625 C-3.28355735 43.20794119 -1.76707214 40.75030169 1.49609375 36.69921875 C2.13562988 35.89887207 2.77516602 35.09852539 3.43408203 34.27392578 C3.92634277 33.66919434 4.41860352 33.06446289 4.92578125 32.44140625 C-41.8616373 38.54970535 -41.8616373 38.54970535 -87.48291016 50.30834961 C-92.96141053 52.05617542 -98.29840208 53.42111711 -104.07421875 52.44140625 C-106.69921875 50.31640625 -106.69921875 50.31640625 -108.07421875 47.44140625 C-108.13671875 44.37890625 -108.13671875 44.37890625 -107.07421875 41.44140625 C-102.95799367 37.333205 -98.52113942 36.03204224 -93.07421875 34.50390625 C-92.19193604 34.24939697 -91.30965332 33.9948877 -90.40063477 33.73266602 C-60.06911092 25.12285973 -28.47695982 19.26235272 2.92578125 16.44140625 C2.16265625 15.69890625 1.39953125 14.95640625 0.61328125 14.19140625 C-4.94811535 8.50067485 -4.94811535 8.50067485 -5.38671875 4.81640625 C-4.89013043 1.04233501 -3.67063222 0.52704122 0 0 Z " fill="#F7F7F7" transform="translate(470.07421875,321.55859375)"/>
<path d="M0 0 C3.14847243 1.300456 4.61740061 2.5514352 6.8125 5.125 C8.47255705 9.1440855 8.86116188 12.71705333 8 17 C7.154375 18.010625 6.30875 19.02125 5.4375 20.0625 C2.57257056 22.84223773 2.57257056 22.84223773 3.18188477 26.71972656 C3.84310547 30.80761162 5.11078316 34.58870514 6.65234375 38.421875 C6.91253799 39.08914612 7.17273224 39.75641724 7.44081116 40.44390869 C8.26449383 42.54941523 9.10095581 44.64957555 9.9375 46.75 C10.49494213 48.17286333 11.05158955 49.59603829 11.60742188 51.01953125 C14.16508975 57.74806265 14.16508975 57.74806265 17.17797852 64.27441406 C18 66 18 66 17.9375 68.5 C16.66774824 71.8860047 15.0259966 73.0743658 12 75 C6.30988941 76.4598482 0.52467428 76.26185939 -5.3125 76.3125 C-6.96668945 76.35600586 -6.96668945 76.35600586 -8.65429688 76.40039062 C-17.21853071 76.46685931 -21.87736298 74.74842468 -29 70 C-26.54504927 62.24402005 -23.53700484 54.76864117 -20.4375 47.25 C-19.45697045 44.85939993 -18.47649941 42.46877587 -17.49609375 40.078125 C-17.06482178 39.03043945 -16.6335498 37.98275391 -16.18920898 36.90332031 C-15.79677002 35.94522461 -15.40433105 34.98712891 -15 34 C-14.44131226 32.66340332 -14.44131226 32.66340332 -13.87133789 31.29980469 C-12.70806322 28.22946357 -12.54232199 26.26912866 -13 23 C-14.15696578 21.33562891 -14.15696578 21.33562891 -15.5625 19.6875 C-17.81942348 16.79581679 -18.35460911 15.04462067 -18.0625 11.375 C-17.33484873 7.34545949 -16.02590526 4.85299639 -13 2 C-8.74179611 -0.54060904 -4.84146703 -0.55430034 0 0 Z " fill="#F7F7F8" transform="translate(585,422)"/>
<path d="M0 0 C3.66049006 2.13528587 5.38649813 4.14591476 7 8 C7.60371619 12.38282272 7.48333518 15.99130049 5.5625 20 C4 22 4 22 3 23 C2.61434872 27.73111476 3.5114948 30.79461783 5.5 35.0625 C8.32392793 41.31579351 10.86571504 47.65243314 13.3125 54.0625 C13.66183594 54.96685791 14.01117188 55.87121582 14.37109375 56.80297852 C14.86222656 58.09353149 14.86222656 58.09353149 15.36328125 59.41015625 C15.80087769 60.55689819 15.80087769 60.55689819 16.24731445 61.72680664 C17.05379677 64.16247218 17.67471843 66.45253453 18 69 C15.30227962 72.77680853 12.36360914 73.77675497 8 75 C3.52705813 75.42626738 -0.94611252 75.37019894 -5.4375 75.375 C-6.63955078 75.39949219 -7.84160156 75.42398438 -9.08007812 75.44921875 C-15.95080507 75.47195695 -20.45729562 75.19405761 -26 71 C-26.66 70.34 -27.32 69.68 -28 69 C-27.69567969 63.59625819 -25.45434915 58.94834638 -23.3125 54.0625 C-22.58908166 52.37272189 -21.86643504 50.6826132 -21.14453125 48.9921875 C-20.78439941 48.15397461 -20.42426758 47.31576172 -20.05322266 46.45214844 C-18.51546894 42.87189848 -16.99010242 39.28785513 -15.5 35.6875 C-15.0153125 34.53636719 -14.530625 33.38523437 -14.03125 32.19921875 C-12.96134637 28.88008589 -12.65148714 26.46058548 -13 23 C-14.85164036 20.24743206 -14.85164036 20.24743206 -17 18 C-18.73125121 14.53749757 -18.47815224 10.78591771 -18 7 C-13.74588081 -0.14084292 -7.8032948 -1.03706673 0 0 Z " fill="#F8F8F8" transform="translate(329,316)"/>
<path d="M0 0 C4.07040791 1.46563707 6.34400117 3.91996885 8.19140625 7.7890625 C8.8887162 11.26480124 8.92145652 14.31687217 8.19140625 17.7890625 C6.89195881 19.48228189 5.56214411 21.15302054 4.19140625 22.7890625 C4.52152506 28.43529381 6.30272995 33.26324694 8.3515625 38.4609375 C8.66089218 39.26517151 8.97022186 40.06940552 9.28892517 40.89801025 C10.27033535 43.4477656 11.2612458 45.99366808 12.25390625 48.5390625 C13.24929294 51.09904035 14.24246875 53.65978791 15.229599 56.22296143 C15.84222423 57.81308006 16.45970348 59.40133896 17.08253479 60.98748779 C18.26686149 64.0564099 19.19140625 66.46934181 19.19140625 69.7890625 C17.63119758 70.44041175 16.06812046 71.08489214 14.50390625 71.7265625 C13.19873047 72.26603516 13.19873047 72.26603516 11.8671875 72.81640625 C1.95188249 76.42065581 -10.86615561 76.07069225 -20.828125 72.73828125 C-23.06150889 71.66784282 -24.88055762 70.33582407 -26.80859375 68.7890625 C-26.25952478 63.71744157 -25.10305534 59.55222827 -23.12109375 54.859375 C-22.58187186 53.55605551 -22.04281447 52.25266797 -21.50390625 50.94921875 C-20.65840579 48.93148041 -19.80916506 46.91541158 -18.95605469 44.90087891 C-14.38428902 34.22220061 -14.38428902 34.22220061 -12.80859375 22.7890625 C-13.77744747 21.10409952 -14.77846098 19.43727494 -15.80859375 17.7890625 C-16.42225335 13.56335588 -16.27272642 9.94939418 -14.68359375 5.9765625 C-10.35269418 0.92384633 -6.57782471 -1.13525909 0 0 Z " fill="#F7F8F8" transform="translate(638.80859375,297.2109375)"/>
<path d="M0 0 C0.77988281 -0.00386719 1.55976563 -0.00773438 2.36328125 -0.01171875 C8.12329867 -0.00170133 8.12329867 -0.00170133 9.25 1.125 C9.4375 3.5625 9.4375 3.5625 9.25 6.125 C6.20075074 9.17424926 2.36907455 9.72457796 -1.70703125 10.9296875 C-9.1515581 13.85398175 -11.76113685 19.13292646 -15.1796875 25.90039062 C-17.20966932 29.5869826 -18.0019606 30.88366926 -22.15234375 32.22265625 C-25.99827928 32.11826061 -28.44333584 31.44805191 -31.9375 29.875 C-32.94167969 29.43671875 -33.94585937 28.9984375 -34.98046875 28.546875 C-41.20502538 25.35119289 -41.20502538 25.35119289 -42.5 22.4375 C-42.87825085 18.93867963 -42.92057543 15.6502255 -42.75 12.125 C-40.23059693 9.60559693 -39.05757373 9.8006858 -35.5625 9.4375 C-29.38532209 8.52733611 -24.42546542 6.39385642 -18.9152832 3.60083008 C-12.43182891 0.32905872 -7.11510994 -0.0359955 0 0 Z " fill="#E23E38" transform="translate(389.75,174.875)"/>
<path d="M0 0 C1.09570312 0.4640625 2.19140625 0.928125 3.3203125 1.40625 C11.32088745 4.82088745 11.32088745 4.82088745 12.5 6 C12.54063832 7.66617115 12.542721 9.33388095 12.5 11 C11.22942818 11.47985967 9.95853152 11.9588593 8.6875 12.4375 C7.97980469 12.70433594 7.27210938 12.97117188 6.54296875 13.24609375 C-0.07688742 15.68898522 -6.55230951 15.87021578 -13.5 15 C-16.47160658 13.55778027 -18.72904083 11.92214467 -21.26953125 9.82421875 C-24.4316918 7.23800338 -27.80593334 5.71021605 -31.5 4 C-31.12906843 1.33972516 -30.6818358 0.18061815 -28.75 -1.73828125 C-27.63625 -2.51751953 -27.63625 -2.51751953 -26.5 -3.3125 C-25.778125 -3.84488281 -25.05625 -4.37726563 -24.3125 -4.92578125 C-16.07059879 -8.07372963 -7.53320958 -3.28323904 0 0 Z " fill="#E23E38" transform="translate(301.5,216)"/>
<path d="M0 0 C0.66 0 1.32 0 2 0 C4.83882048 5.67764095 2.34916233 12.91629246 0.875 18.75 C0.65344238 19.63091309 0.43188477 20.51182617 0.20361328 21.41943359 C-1.82755762 29.07191579 -4.14263093 37.42842062 -11 42 C-13 41.9375 -13 41.9375 -15 41 C-17.55296374 38.0068701 -18.02833767 36.51952398 -17.8125 32.5625 C-17 29 -17 29 -16 26.125 C-15.10822136 23.33819174 -14.85389038 21.31367662 -14.6875 18.4375 C-14.34968482 15.01354272 -14.10338068 14.13074615 -11.875 11.3125 C-10.92625 10.549375 -9.9775 9.78625 -9 9 C-7.76682968 7.96307614 -6.53778759 6.92122677 -5.3125 5.875 C-4.73113281 5.39804687 -4.14976562 4.92109375 -3.55078125 4.4296875 C-1.75318225 2.88518193 -1.75318225 2.88518193 0 0 Z " fill="#1B92C3" transform="translate(678,523)"/>
<path d="M0 0 C0 2.64 0 5.28 0 8 C-1.32 8 -2.64 8 -4 8 C-3.43410156 9.04800781 -2.86820313 10.09601563 -2.28515625 11.17578125 C-1.54414712 12.55462102 -0.8032685 13.93353094 -0.0625 15.3125 C0.49727539 16.34793945 0.49727539 16.34793945 1.06835938 17.40429688 C1.42607422 18.07138672 1.78378906 18.73847656 2.15234375 19.42578125 C2.48226318 20.03848877 2.81218262 20.65119629 3.15209961 21.2824707 C5.12056852 25.26985301 5.31405473 28.60323375 5 33 C3.9375 35 3.9375 35 2 36 C-2.16110751 36 -4.45808133 35.35743572 -7.9375 33.0625 C-10.20380177 29.69738524 -10.17397127 29.03015812 -9.9375 25.1875 C-9.62298088 19.90357881 -11.22368073 17.67553035 -14.59765625 13.76171875 C-16.32020494 11.59773697 -16.82827647 9.74757652 -17 7 C-15.92130607 6.03644756 -14.83681257 5.07938583 -13.75 4.125 C-12.84507812 3.32449219 -12.84507812 3.32449219 -11.921875 2.5078125 C-7.64925114 -0.84428671 -5.3417054 -1.21402395 0 0 Z " fill="#18202E" transform="translate(686,319)"/>
<path d="M0 0 C3 1 3 1 3.96728516 2.77832031 C4.37406494 3.91672363 4.37406494 3.91672363 4.7890625 5.078125 C5.09070313 5.90957031 5.39234375 6.74101562 5.703125 7.59765625 C6.15945313 8.91056641 6.15945313 8.91056641 6.625 10.25 C6.93695312 11.10980469 7.24890625 11.96960938 7.5703125 12.85546875 C9.0135175 16.89271031 10.22674796 20.77462998 11 25 C5.1136572 29.87626031 5.1136572 29.87626031 0.625 30.375 C-2 30 -2 30 -3 29 C-3.21222693 24.01266723 -2.72334588 19.27027371 -2.0234375 14.33203125 C-1.99637801 11.63961226 -2.69557225 10.31681943 -4 8 C-4.375 5.4375 -4.375 5.4375 -4 3 C-2.1875 1.125 -2.1875 1.125 0 0 Z " fill="#F8C93F" transform="translate(533,275)"/>
<path d="M0 0 C2.9375 0.8125 2.9375 0.8125 5.9375 2.8125 C6.546875 5.1171875 6.546875 5.1171875 5.9375 7.8125 C3.70245332 9.77862396 1.65928862 11.33378 -0.8125 12.9375 C-2.07819871 13.79416193 -3.34382556 14.65093006 -4.609375 15.5078125 C-5.21217285 15.90419922 -5.8149707 16.30058594 -6.43603516 16.70898438 C-8.19914823 17.87055735 -8.19914823 17.87055735 -10.2578125 19.6015625 C-13.44033749 21.73702299 -16.32115622 21.05387702 -20.0625 20.8125 C-20.7225 20.4825 -21.3825 20.1525 -22.0625 19.8125 C-20.4879269 15.94763876 -18.0577764 13.67754699 -15.0625 10.8125 C-13.04849486 8.77046696 -11.03742036 6.72558726 -9.02734375 4.6796875 C-3.8545661 -0.23599384 -3.8545661 -0.23599384 0 0 Z " fill="#F8C83F" transform="translate(697.0625,196.1875)"/>
<path d="M0 0 C1.70736328 0.00773438 1.70736328 0.00773438 3.44921875 0.015625 C4.57972656 0.01046875 5.71023438 0.0053125 6.875 0 C10.049979 0.25856116 12.27574724 0.91297055 15.13671875 2.265625 C14.95701457 6.21911703 14.57707505 7.83655989 11.69921875 10.640625 C7.1245874 12.72729895 3.10102281 13.00044453 -1.86328125 12.265625 C-2.85328125 11.605625 -3.84328125 10.945625 -4.86328125 10.265625 C-5.2265625 8.390625 -5.2265625 8.390625 -5.17578125 6.265625 C-5.16998047 5.21375 -5.16998047 5.21375 -5.1640625 4.140625 C-4.62379781 0.77274122 -3.22894087 0.29954704 0 0 Z " fill="#F8C63E" transform="translate(494.86328125,243.734375)"/>
<path d="M0 0 C0.66 0.33 1.32 0.66 2 1 C2.1134375 1.9075 2.226875 2.815 2.34375 3.75 C3.15310921 7.75825512 4.61862903 9.15510208 7.5 12 C11.1362364 15.59020809 12.79423337 17.80782206 13 23 C12.21120401 26.01688856 10.90060951 28.52684663 9 31 C6.25 32 6.25 32 4 32 C3.3125 29.6875 3.3125 29.6875 3 27 C3.9793879 25.97980427 4.97895449 24.97850195 6 24 C6.03257735 22.06987975 6.03257735 22.06987975 5 20 C2.5723986 17.72382698 2.5723986 17.72382698 -0.375 15.5625 C-4.26509312 12.61157184 -6.54622962 10.18207821 -9 6 C-12.07561246 4.64019119 -12.07561246 4.64019119 -15 4 C-15 3.67 -15 3.34 -15 3 C-12.4375 2.4375 -12.4375 2.4375 -9 3 C-6.95368529 5.21468237 -5.29315231 7.52882138 -3.61328125 10.03125 C-3.08089844 10.6809375 -2.54851563 11.330625 -2 12 C-1.01 12 -0.02 12 1 12 C0.34386151 7.84199512 0.34386151 7.84199512 -0.625 3.75 C-1 2 -1 2 0 0 Z " fill="#F5CB40" transform="translate(575,323)"/>
<path d="M0 0 C0.27734375 2.296875 0.27734375 2.296875 0 5 C-4.63064778 9.36963006 -10.75498412 11.8843619 -17.08203125 12.25390625 C-19 12 -19 12 -21.5625 10.0625 C-22.036875 9.381875 -22.51125 8.70125 -23 8 C-16.60173413 2.79281942 -8.32005098 -0.94546034 0 0 Z " fill="#E53E38" transform="translate(334,195)"/>
<path d="M0 0 C2.31 0.33 4.62 0.66 7 1 C6.93993922 2.45947705 6.8511311 3.91779272 6.75 5.375 C6.68039062 6.59316406 6.68039062 6.59316406 6.609375 7.8359375 C6 10 6 10 4.125 11.28125 C1.64653737 12.11955354 -0.40071295 12.14440484 -3 12 C-3.88336837 9.5332355 -4.1312406 8.36140628 -3.22265625 5.859375 C-2.83980469 5.16328125 -2.45695313 4.4671875 -2.0625 3.75 C-1.68222656 3.04359375 -1.30195312 2.3371875 -0.91015625 1.609375 C-0.60980469 1.07828125 -0.30945313 0.5471875 0 0 Z " fill="#FBCE40" transform="translate(519,289)"/>
<path d="M0 0 C3.25696479 0.41755959 4.63443291 0.63443291 7 3 C6.625 5.125 6.625 5.125 6 7 C3.75 7.6875 3.75 7.6875 1 8 C-1.3125 6.5625 -1.3125 6.5625 -3 5 C-1.125 1.125 -1.125 1.125 0 0 Z " fill="#E73F38" transform="translate(399,310)"/>
<path d="M0 0 C1.98828125 0.171875 1.98828125 0.171875 4.3125 0.75 C5.11171875 0.94851563 5.9109375 1.14703125 6.734375 1.3515625 C9.23928374 2.06848466 11.62498519 2.92741267 14 4 C14 4.66 14 5.32 14 6 C9.55829268 7.35606055 7.2943828 6.59120114 3.1875 4.5625 C2.21167969 4.08941406 1.23585938 3.61632812 0.23046875 3.12890625 C-0.50558594 2.75636719 -1.24164063 2.38382812 -2 2 C-1.34 1.34 -0.68 0.68 0 0 Z " fill="#E53E37" transform="translate(324,408)"/>
<path d="M0 0 C1.67542976 0.28604898 3.34385343 0.61781233 5 1 C5.625 2.8125 5.625 2.8125 6 5 C5.01 6.485 5.01 6.485 4 8 C2.68 8 1.36 8 0 8 C-0.38063221 5.6739143 -0.71269945 3.33944736 -1 1 C-0.67 0.67 -0.34 0.34 0 0 Z " fill="#F1CB3F" transform="translate(768,452)"/>
<path d="M0 0 C0 1.32 0 2.64 0 4 C-2.91482778 4.80967438 -4.46113217 5.21845993 -7.3125 4.0625 C-7.869375 3.711875 -8.42625 3.36125 -9 3 C-9 2.34 -9 1.68 -9 1 C-5.64919071 -1.10976881 -3.77897651 -1.0497157 0 0 Z " fill="#ED3F37" transform="translate(354,416)"/>
<path d="M0 0 C1.32 0.99 2.64 1.98 4 3 C3.67 3.99 3.34 4.98 3 6 C2.01 5.01 1.02 4.02 0 3 C-0.77210952 5.50935594 -0.98572204 7.34267107 -0.875 10 C-1.01635352 13.39248456 -1.73837983 14.54991149 -4 17 C-3.90460937 16.40832031 -3.80921875 15.81664062 -3.7109375 15.20703125 C-3.05845515 10.55619775 -2.65462721 7.27685626 -5 3 C-3.35 2.01 -1.7 1.02 0 0 Z " fill="#10152C" transform="translate(590,334)"/>
<path d="M0 0 C2.33944736 0.28730055 4.6739143 0.61936779 7 1 C7 2.98 7 4.96 7 7 C6.34 6.01 5.68 5.02 5 4 C4.01 4 3.02 4 2 4 C1.01 5.485 1.01 5.485 0 7 C-0.99 7 -1.98 7 -3 7 C-1.125 1.125 -1.125 1.125 0 0 Z " fill="#E8C13D" transform="translate(519,289)"/>
<path d="M0 0 C3.36370321 1.39187719 5.21906331 2.79431396 7 6 C7.375 9.0625 7.375 9.0625 7 12 C5.5 13.875 5.5 13.875 4 15 C3 12 3 12 3.125 8.0625 C3.18020022 5.06512794 3.098265 4.16377501 1.5 1.5 C1.005 1.005 0.51 0.51 0 0 Z " fill="#F2CC3F" transform="translate(698,401)"/>
<path d="M0 0 C2.90802461 2.21928194 4.95312762 3.92969143 7 7 C6.96856707 9.73990408 6.44521663 12.28417854 6 15 C5.34 15 4.68 15 4 15 C3.67 13.02 3.34 11.04 3 9 C3.66 9 4.32 9 5 9 C4.360625 8.071875 3.72125 7.14375 3.0625 6.1875 C1 3 1 3 0 0 Z " fill="#F5CF3E" transform="translate(670,332)"/>
<path d="M0 0 C0.99 0.33 1.98 0.66 3 1 C2.55673216 4.01422128 1.95637001 6.07678877 0.4375 8.75 C-1.42271341 12.95569988 -1.2714736 16.47543999 -1 21 C-3 19 -3 19 -3.25 15.25 C-3.16224942 11.5172252 -2.3238023 8.50418255 -1 5 C-0.63893903 3.33911955 -0.29537827 1.67381019 0 0 Z " fill="#0B0F2C" transform="translate(601,243)"/>
<path d="M0 0 C0.33 0.99 0.66 1.98 1 3 C-0.62339805 4.70884005 -2.29319053 6.37446717 -4 8 C-4.66 8 -5.32 8 -6 8 C-6.33 8.66 -6.66 9.32 -7 10 C-7.99 9.67 -8.98 9.34 -10 9 C-6.7 6.03 -3.4 3.06 0 0 Z " fill="#1A9DD0" transform="translate(677,525)"/>
<path d="M0 0 C0.33 0.66 0.66 1.32 1 2 C-0.10281127 3.27200971 -1.20730769 4.54255853 -2.3125 5.8125 C-2.92738281 6.52019531 -3.54226563 7.22789062 -4.17578125 7.95703125 C-5.73334335 9.70136739 -7.32658875 11.36778041 -9 13 C-9.66 12.67 -10.32 12.34 -11 12 C-7.37 8.04 -3.74 4.08 0 0 Z " fill="#131428" transform="translate(676,465)"/>
<path d="M0 0 C0.33 0.99 0.66 1.98 1 3 C0.34 3 -0.32 3 -1 3 C0.65 5.64 2.3 8.28 4 11 C3.01 11.495 3.01 11.495 2 12 C-0.21713508 8.74820188 -2.34832443 5.5786304 -4 2 C-2.68 1.34 -1.36 0.68 0 0 Z " fill="#F0D03D" transform="translate(535,313)"/>
<path d="M0 0 C3.3125 -0.1875 3.3125 -0.1875 7 0 C7.99 0.99 8.98 1.98 10 3 C5.05 3 0.1 3 -5 3 C-5 2.67 -5 2.34 -5 2 C-3.35 1.67 -1.7 1.34 0 1 C0 0.67 0 0.34 0 0 Z " fill="#222D35" transform="translate(451,137)"/>
<path d="M0 0 C0.33 0 0.66 0 1 0 C1.33 3.96 1.66 7.92 2 12 C1.01 12.66 0.02 13.32 -1 14 C-0.67 9.38 -0.34 4.76 0 0 Z " fill="#2A3136" transform="translate(857,227)"/>
<path d="M0 0 C0.33 0 0.66 0 1 0 C0.67 3.3 0.34 6.6 0 10 C-0.66 9.67 -1.32 9.34 -2 9 C-2.40729228 6.67843403 -2.74438677 4.3431213 -3 2 C-2.34 2 -1.68 2 -1 2 C-0.67 1.34 -0.34 0.68 0 0 Z " fill="#F4D944" transform="translate(818,422)"/>
<path d="M0 0 C-0.33 0.99 -0.66 1.98 -1 3 C-2.65 3 -4.3 3 -6 3 C-6.33 2.01 -6.66 1.02 -7 0 C-4.3333581 -1.33332095 -2.83319697 -0.67102033 0 0 Z " fill="#DC3F38" transform="translate(354,416)"/>
<path d="M0 0 C0.66 0.66 1.32 1.32 2 2 C-0.31 4.31 -2.62 6.62 -5 9 C-5.66 8.67 -6.32 8.34 -7 8 C-4.69 5.36 -2.38 2.72 0 0 Z " fill="#131428" transform="translate(624,575)"/>
<path d="M0 0 C1.32 0.33 2.64 0.66 4 1 C4 3.31 4 5.62 4 8 C1.84622436 5.37801226 0.59927826 3.35595828 0 0 Z " fill="#E1C03C" transform="translate(682,327)"/>
<path d="M0 0 C0.99 0.33 1.98 0.66 3 1 C2.34 2.98 1.68 4.96 1 7 C0.34 6.34 -0.32 5.68 -1 5 C-0.625 2.375 -0.625 2.375 0 0 Z " fill="#2B282D" transform="translate(577,323)"/>
</svg>